<svg version="1.1" viewBox="0.0 0.0 1130.0 430.0" fill="none" stroke="none" stroke-linecap="square" stroke-miterlimit="10" width="1130" height="430" xmlns:xlink="http://www.w3.org/1999/xlink" xmlns="http://www.w3.org/2000/svg"><path fill="#ffffff" d="M0 0L1130.0 0L1130.0 430.0L0 430.0L0 0Z" fill-rule="nonzero"/><path stroke="#333333" stroke-width="1.0" stroke-linecap="butt" d="M81.5 354.5L1108.5 354.5" fill-rule="nonzero"/><path stroke="#cccccc" stroke-width="1.0" stroke-linecap="butt" d="M81.5 282.5L1108.5 282.5" fill-rule="nonzero"/><path stroke="#cccccc" stroke-width="1.0" stroke-linecap="butt" d="M81.5 210.5L1108.5 210.5" fill-rule="nonzero"/><path stroke="#cccccc" stroke-width="1.0" stroke-linecap="butt" d="M81.5 139.5L1108.5 139.5" fill-rule="nonzero"/><path stroke="#cccccc" stroke-width="1.0" stroke-linecap="butt" d="M81.5 67.5L1108.5 67.5" fill-rule="nonzero"/><clipPath id="id_0"><path d="M81.5 67.333336L1108.5 67.333336L1108.5 354.5L81.5 354.5L81.5 67.333336Z" clip-rule="nonzero"/></clipPath><path stroke="#000000" stroke-width="0.0" stroke-linecap="butt" stroke-opacity="0.0" clip-path="url(#id_0)" d="M173.0 355.0L114.0 355.0L114.0 213.0C114.0 211.89543 114.89543 211.0 116.0 211.0L171.0 211.0C172.10457 211.0 173.0 211.89543 173.0 213.0Z" fill-rule="nonzero"/><path fill="#4285f4" clip-path="url(#id_0)" d="M173.0 355.0L114.0 355.0L114.0 213.0C114.0 211.89543 114.89543 211.0 116.0 211.0L171.0 211.0C172.10457 211.0 173.0 211.89543 173.0 213.0Z" fill-rule="nonzero"/><path stroke="#000000" stroke-width="0.0" stroke-linecap="butt" stroke-opacity="0.0" clip-path="url(#id_0)" d="M263.0 355.0L204.0 355.0L204.0 213.0C204.0 211.89543 204.89543 211.0 206.0 211.0L261.0 211.0C262.10458 211.0 263.0 211.89543 263.0 213.0Z" fill-rule="nonzero"/><path fill="#4285f4" clip-path="url(#id_0)" d="M263.0 355.0L204.0 355.0L204.0 213.0C204.0 211.89543 204.89543 211.0 206.0 211.0L261.0 211.0C262.10458 211.0 263.0 211.89543 263.0 213.0Z" fill-rule="nonzero"/><path stroke="#000000" stroke-width="0.0" stroke-linecap="butt" stroke-opacity="0.0" clip-path="url(#id_0)" d="M354.0 355.0L295.0 355.0L295.0 69.0C295.0 67.89543 295.89542 67.0 297.0 67.0L352.0 67.0C353.10458 67.0 354.0 67.89543 354.0 69.0Z" fill-rule="nonzero"/><path fill="#4285f4" clip-path="url(#id_0)" d="M354.0 355.0L295.0 355.0L295.0 69.0C295.0 67.89543 295.89542 67.0 297.0 67.0L352.0 67.0C353.10458 67.0 354.0 67.89543 354.0 69.0Z" fill-rule="nonzero"/><path stroke="#000000" stroke-width="0.0" stroke-linecap="butt" stroke-opacity="0.0" clip-path="url(#id_0)" d="M444.0 355.0L385.0 355.0L385.0 69.0C385.0 67.89543 385.89542 67.0 387.0 67.0L442.0 67.0C443.10458 67.0 444.0 67.89543 444.0 69.0Z" fill-rule="nonzero"/><path fill="#4285f4" clip-path="url(#id_0)" d="M444.0 355.0L385.0 355.0L385.0 69.0C385.0 67.89543 385.89542 67.0 387.0 67.0L442.0 67.0C443.10458 67.0 444.0 67.89543 444.0 69.0Z" fill-rule="nonzero"/><path stroke="#000000" stroke-width="0.0" stroke-linecap="butt" stroke-opacity="0.0" clip-path="url(#id_0)" d="M535.0 355.0L476.0 355.0L476.0 285.0C476.0 283.89542 476.89542 283.0 478.0 283.0L533.0 283.0C534.10455 283.0 535.0 283.89542 535.0 285.0Z" fill-rule="nonzero"/><path fill="#4285f4" clip-path="url(#id_0)" d="M535.0 355.0L476.0 355.0L476.0 285.0C476.0 283.89542 476.89542 283.0 478.0 283.0L533.0 283.0C534.10455 283.0 535.0 283.89542 535.0 285.0Z" fill-rule="nonzero"/><path stroke="#000000" stroke-width="0.0" stroke-linecap="butt" stroke-opacity="0.0" clip-path="url(#id_0)" d="M625.0 355.0L566.0 355.0L566.0 285.0C566.0 283.89542 566.89545 283.0 568.0 283.0L623.0 283.0C624.10455 283.0 625.0 283.89542 625.0 285.0Z" fill-rule="nonzero"/><path fill="#4285f4" clip-path="url(#id_0)" d="M625.0 355.0L566.0 355.0L566.0 285.0C566.0 283.89542 566.89545 283.0 568.0 283.0L623.0 283.0C624.10455 283.0 625.0 283.89542 625.0 285.0Z" fill-rule="nonzero"/><path stroke="#000000" stroke-width="0.0" stroke-linecap="butt" stroke-opacity="0.0" clip-path="url(#id_0)" d="M715.0 355.0L656.0 355.0L656.0 249.0C656.0 247.89543 656.89545 247.0 658.0 247.0L713.0 247.0C714.10455 247.0 715.0 247.89543 715.0 249.0Z" fill-rule="nonzero"/><path fill="#4285f4" clip-path="url(#id_0)" d="M715.0 355.0L656.0 355.0L656.0 249.0C656.0 247.89543 656.89545 247.0 658.0 247.0L713.0 247.0C714.10455 247.0 715.0 247.89543 715.0 249.0Z" fill-rule="nonzero"/><path stroke="#000000" stroke-width="0.0" stroke-linecap="butt" stroke-opacity="0.0" clip-path="url(#id_0)" d="M806.0 355.0L747.0 355.0L747.0 285.0C747.0 283.89542 747.89545 283.0 749.0 283.0L804.0 283.0C805.10455 283.0 806.0 283.89542 806.0 285.0Z" fill-rule="nonzero"/><path fill="#4285f4" clip-path="url(#id_0)" d="M806.0 355.0L747.0 355.0L747.0 285.0C747.0 283.89542 747.89545 283.0 749.0 283.0L804.0 283.0C805.10455 283.0 806.0 283.89542 806.0 285.0Z" fill-rule="nonzero"/><path stroke="#000000" stroke-width="0.0" stroke-linecap="butt" stroke-opacity="0.0" clip-path="url(#id_0)" d="M896.0 355.0L837.0 355.0L837.0 321.0C837.0 319.89542 837.89545 319.0 839.0 319.0L894.0 319.0C895.10455 319.0 896.0 319.89542 896.0 321.0Z" fill-rule="nonzero"/><path fill="#4285f4" clip-path="url(#id_0)" d="M896.0 355.0L837.0 355.0L837.0 321.0C837.0 319.89542 837.89545 319.0 839.0 319.0L894.0 319.0C895.10455 319.0 896.0 319.89542 896.0 321.0Z" fill-rule="nonzero"/><path stroke="#000000" stroke-width="0.0" stroke-linecap="butt" stroke-opacity="0.0" clip-path="url(#id_0)" d="M987.0 355.0L928.0 355.0L928.0 321.0C928.0 319.89542 928.89545 319.0 930.0 319.0L985.0 319.0C986.10455 319.0 987.0 319.89542 987.0 321.0Z" fill-rule="nonzero"/><path fill="#4285f4" clip-path="url(#id_0)" d="M987.0 355.0L928.0 355.0L928.0 321.0C928.0 319.89542 928.89545 319.0 930.0 319.0L985.0 319.0C986.10455 319.0 987.0 319.89542 987.0 321.0Z" fill-rule="nonzero"/><path stroke="#000000" stroke-width="0.0" stroke-linecap="butt" stroke-opacity="0.0" clip-path="url(#id_0)" d="M1077.0 355.0L1018.0 355.0L1018.0 321.0C1018.0 319.89542 1018.89545 319.0 1020.0 319.0L1075.0 319.0C1076.1046 319.0 1077.0 319.89542 1077.0 321.0Z" fill-rule="nonzero"/><path fill="#4285f4" clip-path="url(#id_0)" d="M1077.0 355.0L1018.0 355.0L1018.0 321.0C1018.0 319.89542 1018.89545 319.0 1020.0 319.0L1075.0 319.0C1076.1046 319.0 1077.0 319.89542 1077.0 321.0Z" fill-rule="nonzero"/><path fill="#424242" d="M570.7031 405.5L569.5781 405.5L569.5781 396.96875L570.7031 396.96875L570.7031 405.5ZM573.34375 399.15625L573.375 399.95312Q574.1094 399.04688 575.28125 399.04688Q577.2969 399.04688 577.3125 401.3125L577.3125 405.5L576.21875 405.5L576.21875 401.29688Q576.21875 400.625 575.90625 400.29688Q575.6094 399.96875 574.9531 399.96875Q574.4219 399.96875 574.0156 400.25Q573.625 400.53125 573.40625 400.98438L573.40625 405.5L572.3281 405.5L572.3281 399.15625L573.34375 399.15625ZM580.7969 397.625L580.7969 399.15625L581.96875 399.15625L581.96875 400.0L580.7969 400.0L580.7969 403.92188Q580.7969 404.3125 580.9531 404.5Q581.1094 404.6875 581.4844 404.6875Q581.6719 404.6875 582.0 404.625L582.0 405.5Q581.5781 405.625 581.1719 405.625Q580.4531 405.625 580.0781 405.1875Q579.7031 404.73438 579.7031 403.92188L579.7031 400.0L578.5469 400.0L578.5469 399.15625L579.7031 399.15625L579.7031 397.625L580.7969 397.625ZM585.9531 405.625Q584.65625 405.625 583.84375 404.78125Q583.0469 403.92188 583.0469 402.5L583.0469 402.3125Q583.0469 401.35938 583.40625 400.625Q583.7656 399.875 584.40625 399.46875Q585.0625 399.04688 585.8125 399.04688Q587.0469 399.04688 587.7344 399.85938Q588.4219 400.67188 588.4219 402.1875L588.4219 402.64062L584.125 402.64062Q584.15625 403.57812 584.6719 404.15625Q585.2031 404.73438 586.0156 404.73438Q586.5781 404.73438 586.96875 404.5Q587.375 404.26562 587.6875 403.875L588.34375 404.39062Q587.5469 405.625 585.9531 405.625ZM585.8125 399.9375Q585.15625 399.9375 584.7031 400.42188Q584.2656 400.89062 584.1719 401.75L587.34375 401.75L587.34375 401.67188Q587.2969 400.84375 586.8906 400.39062Q586.5 399.9375 585.8125 399.9375ZM592.3906 400.125Q592.1406 400.09375 591.8594 400.09375Q590.78125 400.09375 590.40625 401.0L590.40625 405.5L589.3281 405.5L589.3281 399.15625L590.375 399.15625L590.3906 399.89062Q590.9219 399.04688 591.90625 399.04688Q592.21875 399.04688 592.3906 399.125L592.3906 400.125ZM595.40625 404.03125L596.9844 399.15625L598.09375 399.15625L595.8125 405.5L594.9844 405.5L592.6875 399.15625L593.7969 399.15625L595.40625 404.03125ZM603.2344 405.5Q603.1406 405.3125 603.0781 404.82812Q602.3281 405.625 601.28125 405.625Q600.34375 405.625 599.7344 405.09375Q599.1406 404.5625 599.1406 403.73438Q599.1406 402.75 599.8906 402.20312Q600.6406 401.65625 602.0156 401.65625L603.0625 401.65625L603.0625 401.15625Q603.0625 400.59375 602.71875 400.26562Q602.3906 399.92188 601.71875 399.92188Q601.1406 399.92188 600.75 400.21875Q600.3594 400.5 600.3594 400.92188L599.2656 400.92188Q599.2656 400.4375 599.59375 400.0Q599.9375 399.5625 600.5156 399.3125Q601.09375 399.04688 601.78125 399.04688Q602.8906 399.04688 603.5 399.59375Q604.125 400.14062 604.15625 401.09375L604.15625 404.01562Q604.15625 404.89062 604.375 405.40625L604.375 405.5L603.2344 405.5ZM601.4375 404.67188Q601.9531 404.67188 602.40625 404.40625Q602.8594 404.14062 603.0625 403.71875L603.0625 402.42188L602.21875 402.42188Q600.21875 402.42188 600.21875 403.59375Q600.21875 404.09375 600.5625 404.39062Q600.90625 404.67188 601.4375 404.67188ZM607.5 405.5L606.4219 405.5L606.4219 396.5L607.5 396.5L607.5 405.5ZM609.03125 402.26562Q609.03125 401.34375 609.3906 400.59375Q609.7656 399.84375 610.4219 399.45312Q611.0781 399.04688 611.90625 399.04688Q613.2031 399.04688 614.0 399.9375Q614.8125 400.82812 614.8125 402.32812L614.8125 402.40625Q614.8125 403.32812 614.4531 404.0625Q614.09375 404.79688 613.4375 405.21875Q612.78125 405.625 611.9219 405.625Q610.6406 405.625 609.8281 404.73438Q609.03125 403.82812 609.03125 402.34375L609.03125 402.26562ZM610.125 402.40625Q610.125 403.45312 610.6094 404.09375Q611.1094 404.73438 611.9219 404.73438Q612.75 404.73438 613.2344 404.09375Q613.71875 403.4375 613.71875 402.26562Q613.71875 401.23438 613.21875 400.59375Q612.7344 399.9375 611.90625 399.9375Q611.1094 399.9375 610.6094 400.57812Q610.125 401.20312 610.125 402.40625ZM620.0156 403.8125Q620.0156 403.375 619.6719 403.14062Q619.34375 402.89062 618.5156 402.71875Q617.7031 402.54688 617.21875 402.29688Q616.7344 402.04688 616.5 401.71875Q616.28125 401.375 616.28125 400.90625Q616.28125 400.125 616.9375 399.59375Q617.59375 399.04688 618.625 399.04688Q619.7031 399.04688 620.3594 399.60938Q621.03125 400.15625 621.03125 401.01562L619.9531 401.01562Q619.9531 400.57812 619.5625 400.26562Q619.1875 399.9375 618.625 399.9375Q618.03125 399.9375 617.6875 400.20312Q617.3594 400.45312 617.3594 400.85938Q617.3594 401.25 617.6719 401.45312Q617.9844 401.65625 618.7969 401.84375Q619.6094 402.01562 620.1094 402.26562Q620.6094 402.51562 620.84375 402.875Q621.09375 403.23438 621.09375 403.73438Q621.09375 404.59375 620.40625 405.10938Q619.7344 405.625 618.65625 405.625Q617.8906 405.625 617.2969 405.35938Q616.71875 405.07812 616.3906 404.59375Q616.0625 404.10938 616.0625 403.54688L617.1406 403.54688Q617.1719 404.09375 617.5781 404.42188Q617.9844 404.73438 618.65625 404.73438Q619.2656 404.73438 619.6406 404.48438Q620.0156 404.23438 620.0156 403.8125Z" fill-rule="nonzero"/><path fill="#424242" d="M33.5 249.1823L24.96875 249.1823L24.96875 246.76042Q24.96875 245.65105 25.46875 244.8073Q25.953125 243.94792 26.859375 243.47917Q27.765625 243.01042 28.953125 243.01042L29.484375 243.01042Q30.703125 243.01042 31.609375 243.47917Q32.515625 243.9323 33.0 244.8073Q33.484375 245.66667 33.5 246.8073L33.5 249.1823ZM25.890625 248.0573L32.578125 248.0573L32.578125 246.8698Q32.578125 245.57292 31.78125 244.85417Q30.96875 244.1198 29.46875 244.1198L28.96875 244.1198Q27.515625 244.1198 26.71875 244.8073Q25.90625 245.47917 25.890625 246.7448L25.890625 248.0573ZM33.5 240.16667L33.5 241.2448L27.15625 241.2448L27.15625 240.16667L33.5 240.16667ZM25.484375 241.33855Q25.21875 241.33855 25.03125 241.1823Q24.84375 241.01042 24.84375 240.69792Q24.84375 240.38542 25.03125 240.22917Q25.21875 240.0573 25.484375 240.0573Q25.734375 240.0573 25.921875 240.22917Q26.09375 240.38542 26.09375 240.69792Q26.09375 241.01042 25.921875 241.1823Q25.734375 241.33855 25.484375 241.33855ZM31.8125 234.65105Q31.375 234.65105 31.140625 234.9948Q30.890625 235.32292 30.71875 236.15105Q30.546875 236.96355 30.296875 237.44792Q30.046875 237.9323 29.71875 238.16667Q29.375 238.38542 28.90625 238.38542Q28.125 238.38542 27.59375 237.72917Q27.046875 237.07292 27.046875 236.04167Q27.046875 234.96355 27.609375 234.3073Q28.15625 233.63542 29.015625 233.63542L29.015625 234.71355Q28.578125 234.71355 28.265625 235.10417Q27.9375 235.47917 27.9375 236.04167Q27.9375 236.63542 28.203125 236.97917Q28.453125 237.3073 28.859375 237.3073Q29.25 237.3073 29.453125 236.9948Q29.65625 236.6823 29.84375 235.8698Q30.015625 235.0573 30.265625 234.5573Q30.515625 234.0573 30.875 233.82292Q31.234375 233.57292 31.734375 233.57292Q32.59375 233.57292 33.109375 234.26042Q33.625 234.9323 33.625 236.01042Q33.625 236.77605 33.359375 237.3698Q33.078125 237.94792 32.59375 238.27605Q32.109375 238.60417 31.546875 238.60417L31.546875 237.52605Q32.09375 237.4948 32.421875 237.08855Q32.734375 236.6823 32.734375 236.01042Q32.734375 235.40105 32.484375 235.02605Q32.234375 234.65105 31.8125 234.65105ZM25.625 230.8698L27.15625 230.8698L27.15625 229.69792L28.0 229.69792L28.0 230.8698L31.921875 230.8698Q32.3125 230.8698 32.5 230.71355Q32.6875 230.5573 32.6875 230.1823Q32.6875 229.9948 32.625 229.66667L33.5 229.66667Q33.625 230.08855 33.625 230.4948Q33.625 231.21355 33.1875 231.58855Q32.734375 231.96355 31.921875 231.96355L28.0 231.96355L28.0 233.1198L27.15625 233.1198L27.15625 231.96355L25.625 231.96355L25.625 230.8698ZM28.125 225.27605Q28.09375 225.52605 28.09375 225.8073Q28.09375 226.88542 29.0 227.26042L33.5 227.26042L33.5 228.33855L27.15625 228.33855L27.15625 227.29167L27.890625 227.27605Q27.046875 226.7448 27.046875 225.76042Q27.046875 225.44792 27.125 225.27605L28.125 225.27605ZM33.5 223.16667L33.5 224.2448L27.15625 224.2448L27.15625 223.16667L33.5 223.16667ZM25.484375 224.33855Q25.21875 224.33855 25.03125 224.1823Q24.84375 224.01042 24.84375 223.69792Q24.84375 223.38542 25.03125 223.22917Q25.21875 223.0573 25.484375 223.0573Q25.734375 223.0573 25.921875 223.22917Q26.09375 223.38542 26.09375 223.69792Q26.09375 224.01042 25.921875 224.1823Q25.734375 224.33855 25.484375 224.33855ZM30.40625 215.97917Q31.859375 215.97917 32.75 216.65105Q33.625 217.3073 33.625 218.4323Q33.625 219.63542 32.765625 220.29167L33.5 220.35417L33.5 221.33855L24.5 221.33855L24.5 220.26042L27.859375 220.26042Q27.046875 219.60417 27.046875 218.44792Q27.046875 217.29167 27.921875 216.63542Q28.78125 215.97917 30.3125 215.97917L30.40625 215.97917ZM30.28125 217.0573Q29.171875 217.0573 28.578125 217.4948Q27.96875 217.91667 27.96875 218.71355Q27.96875 219.79167 28.953125 220.26042L31.703125 220.26042Q32.703125 219.76042 32.703125 218.71355Q32.703125 217.9323 32.09375 217.4948Q31.484375 217.0573 30.28125 217.0573ZM32.875 210.4323Q33.625 211.0573 33.625 212.29167Q33.625 213.3073 33.03125 213.83855Q32.4375 214.3698 31.28125 214.3698L27.15625 214.3698L27.15625 213.29167L31.25 213.29167Q32.703125 213.29167 32.703125 212.1198Q32.703125 210.8698 31.765625 210.46355L27.15625 210.46355L27.15625 209.3698L33.5 209.3698L33.5 210.40105L32.875 210.4323ZM33.5 206.16667L33.5 207.2448L27.15625 207.2448L27.15625 206.16667L33.5 206.16667ZM25.484375 207.33855Q25.21875 207.33855 25.03125 207.1823Q24.84375 207.01042 24.84375 206.69792Q24.84375 206.38542 25.03125 206.22917Q25.21875 206.0573 25.484375 206.0573Q25.734375 206.0573 25.921875 206.22917Q26.09375 206.38542 26.09375 206.69792Q26.09375 207.01042 25.921875 207.1823Q25.734375 207.33855 25.484375 207.33855ZM32.734375 201.8073Q32.734375 201.22917 32.390625 200.79167Q32.03125 200.35417 31.5 200.3073L31.5 199.27605Q32.046875 199.3073 32.546875 199.66667Q33.03125 200.01042 33.328125 200.58855Q33.625 201.15105 33.625 201.8073Q33.625 203.10417 32.765625 203.8698Q31.890625 204.6198 30.390625 204.6198L30.203125 204.6198Q29.28125 204.6198 28.5625 204.29167Q27.84375 203.94792 27.453125 203.32292Q27.046875 202.6823 27.046875 201.8073Q27.046875 200.7448 27.6875 200.04167Q28.3125 199.32292 29.34375 199.27605L29.34375 200.3073Q28.71875 200.35417 28.328125 200.77605Q27.9375 201.19792 27.9375 201.8073Q27.9375 202.63542 28.53125 203.08855Q29.125 203.54167 30.25 203.54167L30.453125 203.54167Q31.546875 203.54167 32.140625 203.08855Q32.734375 202.63542 32.734375 201.8073ZM33.5 201.4948L33.8125 201.57292Q33.96875 200.66667 34.8125 200.66667Q35.390625 200.66667 35.71875 201.13542Q36.046875 201.60417 36.046875 202.44792L35.421875 202.47917Q35.421875 202.02605 35.265625 201.77605Q35.125 201.51042 34.84375 201.51042Q34.578125 201.51042 34.453125 201.69792Q34.34375 201.88542 34.28125 202.46355L33.5 202.27605L33.5 201.4948ZM33.5 194.4323Q33.3125 194.52605 32.828125 194.58855Q33.625 195.33855 33.625 196.38542Q33.625 197.32292 33.09375 197.9323Q32.5625 198.52605 31.734375 198.52605Q30.75 198.52605 30.203125 197.77605Q29.65625 197.02605 29.65625 195.65105L29.65625 194.60417L29.15625 194.60417Q28.59375 194.60417 28.265625 194.94792Q27.921875 195.27605 27.921875 195.94792Q27.921875 196.52605 28.21875 196.91667Q28.5 197.3073 28.921875 197.3073L28.921875 198.40105Q28.4375 198.40105 28.0 198.07292Q27.5625 197.72917 27.3125 197.15105Q27.046875 196.57292 27.046875 195.88542Q27.046875 194.77605 27.59375 194.16667Q28.140625 193.54167 29.09375 193.51042L32.015625 193.51042Q32.890625 193.51042 33.40625 193.29167L33.5 193.29167L33.5 194.4323ZM32.671875 196.22917Q32.671875 195.71355 32.40625 195.26042Q32.140625 194.8073 31.71875 194.60417L30.421875 194.60417L30.421875 195.44792Q30.421875 197.44792 31.59375 197.44792Q32.09375 197.44792 32.390625 197.10417Q32.671875 196.76042 32.671875 196.22917ZM24.703125 193.3073Q25.34375 193.3073 25.734375 193.66667Q26.125 194.02605 26.125 194.5573Q26.125 194.8073 26.078125 194.97917Q26.015625 195.15105 25.828125 195.44792Q25.640625 195.72917 25.609375 195.85417Q25.578125 195.97917 25.578125 196.13542Q25.578125 196.38542 25.765625 196.5573Q25.9375 196.71355 26.234375 196.71355L26.1875 197.44792Q25.5625 197.44792 25.15625 197.08855Q24.734375 196.72917 24.734375 196.19792Q24.734375 195.97917 24.796875 195.82292Q24.859375 195.65105 25.03125 195.3698Q25.203125 195.08855 25.25 194.94792Q25.296875 194.79167 25.296875 194.6198Q25.296875 194.3698 25.109375 194.19792Q24.90625 194.02605 24.640625 194.02605L24.703125 193.3073ZM30.265625 191.63542Q29.34375 191.63542 28.59375 191.27605Q27.84375 190.90105 27.453125 190.2448Q27.046875 189.58855 27.046875 188.76042Q27.046875 187.46355 27.9375 186.66667Q28.828125 185.85417 30.328125 185.85417L30.40625 185.85417Q31.328125 185.85417 32.0625 186.21355Q32.796875 186.57292 33.21875 187.22917Q33.625 187.88542 33.625 188.7448Q33.625 190.02605 32.734375 190.83855Q31.828125 191.63542 30.34375 191.63542L30.265625 191.63542ZM30.40625 190.54167Q31.453125 190.54167 32.09375 190.0573Q32.734375 189.5573 32.734375 188.7448Q32.734375 187.91667 32.09375 187.4323Q31.4375 186.94792 30.265625 186.94792Q29.234375 186.94792 28.59375 187.44792Q27.9375 187.9323 27.9375 188.76042Q27.9375 189.5573 28.578125 190.0573Q29.203125 190.54167 30.40625 190.54167Z" fill-rule="nonzero"/><path fill="#757575" d="M74.5625 355.35938Q74.5625 357.26562 73.90625 358.20312Q73.265625 359.125 71.875 359.125Q70.515625 359.125 69.859375 358.21875Q69.203125 357.3125 69.171875 355.5L69.171875 354.0625Q69.171875 352.17188 69.8125 351.26562Q70.46875 350.34375 71.859375 350.34375Q73.234375 350.34375 73.890625 351.23438Q74.546875 352.10938 74.5625 353.95312L74.5625 355.35938ZM73.46875 353.875Q73.46875 352.5 73.078125 351.875Q72.703125 351.23438 71.859375 351.23438Q71.03125 351.23438 70.640625 351.875Q70.265625 352.5 70.265625 353.79688L70.265625 355.53125Q70.265625 356.90625 70.65625 357.57812Q71.0625 358.23438 71.875 358.23438Q72.671875 358.23438 73.0625 357.60938Q73.453125 356.98438 73.46875 355.65625L73.46875 353.875Z" fill-rule="nonzero"/><path fill="#757575" d="M74.796875 287.20834L69.203125 287.20834L69.203125 286.4271L72.15625 283.14584Q72.8125 282.39584 73.0625 281.94272Q73.3125 281.47397 73.3125 280.97397Q73.3125 280.3021 72.90625 279.88022Q72.515625 279.44272 71.828125 279.44272Q71.03125 279.44272 70.578125 279.91147Q70.125 280.3646 70.125 281.19272L69.046875 281.19272Q69.046875 280.00522 69.796875 279.28647Q70.5625 278.5521 71.828125 278.5521Q73.03125 278.5521 73.71875 279.1771Q74.40625 279.8021 74.40625 280.84897Q74.40625 282.09897 72.796875 283.84897L70.515625 286.31772L74.796875 286.31772L74.796875 287.20834Z" fill-rule="nonzero"/><path fill="#757575" d="M73.78125 212.5573L74.96875 212.5573L74.96875 213.4323L73.78125 213.4323L73.78125 215.41667L72.703125 215.41667L72.703125 213.4323L68.8125 213.4323L68.8125 212.79167L72.625 206.88542L73.78125 206.88542L73.78125 212.5573ZM70.046875 212.5573L72.703125 212.5573L72.703125 208.3698L72.5625 208.60417L70.046875 212.5573Z" fill-rule="nonzero"/><path fill="#757575" d="M73.46875 135.09375L73.46875 136.0L73.265625 136.0Q72.0 136.03125 71.25 136.76562Q70.5 137.48438 70.375 138.79688Q71.0625 138.03125 72.21875 138.03125Q73.328125 138.03125 74.0 138.8125Q74.671875 139.59375 74.671875 140.84375Q74.671875 142.15625 73.953125 142.95312Q73.234375 143.75 72.015625 143.75Q70.796875 143.75 70.03125 142.8125Q69.28125 141.85938 69.28125 140.375L69.28125 139.96875Q69.28125 137.60938 70.28125 136.35938Q71.28125 135.10938 73.265625 135.09375L73.46875 135.09375ZM72.046875 138.9375Q71.484375 138.9375 71.015625 139.26562Q70.546875 139.59375 70.359375 140.10938L70.359375 140.5Q70.359375 141.5625 70.828125 142.20312Q71.3125 142.84375 72.015625 142.84375Q72.75 142.84375 73.171875 142.3125Q73.59375 141.76562 73.59375 140.89062Q73.59375 140.01562 73.171875 139.48438Q72.75 138.9375 72.046875 138.9375Z" fill-rule="nonzero"/><path fill="#757575" d="M74.390625 65.520836Q74.390625 66.16146 74.046875 66.66146Q73.703125 67.16146 73.140625 67.44271Q73.796875 67.72396 74.1875 68.28646Q74.578125 68.833336 74.578125 69.53646Q74.578125 70.63021 73.828125 71.302086Q73.09375 71.958336 71.875 71.958336Q70.640625 71.958336 69.890625 71.302086Q69.15625 70.63021 69.15625 69.53646Q69.15625 68.833336 69.53125 68.28646Q69.90625 67.72396 70.578125 67.44271Q70.015625 67.16146 69.6875 66.66146Q69.359375 66.16146 69.359375 65.520836Q69.359375 64.44271 70.046875 63.81771Q70.734375 63.177086 71.875 63.177086Q73.0 63.177086 73.6875 63.81771Q74.390625 64.44271 74.390625 65.520836ZM73.5 69.50521Q73.5 68.78646 73.046875 68.34896Q72.59375 67.895836 71.859375 67.895836Q71.125 67.895836 70.671875 68.34896Q70.234375 68.78646 70.234375 69.520836Q70.234375 70.239586 70.671875 70.66146Q71.109375 71.06771 71.875 71.06771Q72.625 71.06771 73.0625 70.645836Q73.5 70.22396 73.5 69.50521ZM71.875 64.06771Q71.234375 64.06771 70.828125 64.47396Q70.4375 64.864586 70.4375 65.552086Q70.4375 66.19271 70.828125 66.59896Q71.21875 67.00521 71.859375 67.00521Q72.515625 67.00521 72.90625 66.59896Q73.296875 66.19271 73.296875 65.552086Q73.296875 64.895836 72.890625 64.489586Q72.484375 64.06771 71.875 64.06771Z" fill-rule="nonzero"/><path fill="#757575" d="M124.639595 368.85938Q124.639595 370.76562 123.983345 371.70312Q123.34272 372.625 121.952095 372.625Q120.59272 372.625 119.93647 371.71875Q119.28022 370.8125 119.24897 369.0L119.24897 367.5625Q119.24897 365.67188 119.889595 364.76562Q120.545845 363.84375 121.93647 363.84375Q123.31147 363.84375 123.96772 364.73438Q124.62397 365.60938 124.639595 367.45312L124.639595 368.85938ZM123.545845 367.375Q123.545845 366.0 123.15522 365.375Q122.78022 364.73438 121.93647 364.73438Q121.108345 364.73438 120.71772 365.375Q120.34272 366.0 120.34272 367.29688L120.34272 369.03125Q120.34272 370.40625 120.733345 371.07812Q121.139595 371.73438 121.952095 371.73438Q122.74897 371.73438 123.139595 371.10938Q123.53022 370.48438 123.545845 369.15625L123.545845 367.375ZM131.65521 369.3125L128.79584 369.3125L128.79584 368.4375L131.65521 368.4375L131.65521 369.3125ZM140.87396 372.5L135.28021 372.5L135.28021 371.71875L138.23334 368.4375Q138.88959 367.6875 139.13959 367.23438Q139.38959 366.76562 139.38959 366.26562Q139.38959 365.59375 138.98334 365.17188Q138.59271 364.73438 137.90521 364.73438Q137.10834 364.73438 136.65521 365.20312Q136.20209 365.65625 136.20209 366.48438L135.12396 366.48438Q135.12396 365.29688 135.87396 364.57812Q136.63959 363.84375 137.90521 363.84375Q139.10834 363.84375 139.79584 364.46875Q140.48334 365.09375 140.48334 366.14062Q140.48334 367.39062 138.87396 369.14062L136.59271 371.60938L140.87396 371.60938L140.87396 372.5ZM142.35834 374.20312L141.74896 373.78125Q142.29584 373.01562 142.32709 372.1875L142.32709 371.21875L143.38959 371.21875L143.38959 372.0625Q143.38959 372.65625 143.09271 373.25Q142.79584 373.84375 142.35834 374.20312ZM149.63959 368.85938Q149.63959 370.76562 148.98334 371.70312Q148.34271 372.625 146.95209 372.625Q145.59271 372.625 144.93646 371.71875Q144.28021 370.8125 144.24896 369.0L144.24896 367.5625Q144.24896 365.67188 144.88959 364.76562Q145.54584 363.84375 146.93646 363.84375Q148.31146 363.84375 148.96771 364.73438Q149.62396 365.60938 149.63959 367.45312L149.63959 368.85938ZM148.54584 367.375Q148.54584 366.0 148.15521 365.375Q147.78021 364.73438 146.93646 364.73438Q146.10834 364.73438 145.71771 365.375Q145.34271 366.0 145.34271 367.29688L145.34271 369.03125Q145.34271 370.40625 145.73334 371.07812Q146.13959 371.73438 146.95209 371.73438Q147.74896 371.73438 148.13959 371.10938Q148.53021 370.48438 148.54584 369.15625L148.54584 367.375ZM151.78021 368.21875L152.21771 363.96875L156.59271 363.96875L156.59271 364.96875L153.13959 364.96875L152.87396 367.29688Q153.51459 366.92188 154.31146 366.92188Q155.46771 366.92188 156.15521 367.70312Q156.84271 368.46875 156.84271 369.78125Q156.84271 371.09375 156.12396 371.85938Q155.42084 372.625 154.13959 372.625Q153.01459 372.625 152.29584 372.0Q151.57709 371.35938 151.48334 370.25L152.49896 370.25Q152.60834 370.98438 153.03021 371.35938Q153.45209 371.73438 154.13959 371.73438Q154.88959 371.73438 155.32709 371.21875Q155.76459 370.70312 155.76459 369.79688Q155.76459 368.9375 155.29584 368.42188Q154.82709 367.90625 154.04584 367.90625Q153.34271 367.90625 152.93646 368.20312L152.65521 368.4375L151.78021 368.21875ZM158.18646 365.60938Q158.18646 364.84375 158.67084 364.34375Q159.17084 363.84375 159.93646 363.84375Q160.71771 363.84375 161.20209 364.34375Q161.68646 364.84375 161.68646 365.64062L161.68646 366.0625Q161.68646 366.82812 161.18646 367.32812Q160.70209 367.8125 159.95209 367.8125Q159.18646 367.8125 158.68646 367.32812Q158.18646 366.82812 158.18646 366.01562L158.18646 365.60938ZM158.99896 366.0625Q158.99896 366.51562 159.24896 366.8125Q159.51459 367.10938 159.95209 367.10938Q160.37396 367.10938 160.62396 366.82812Q160.87396 366.53125 160.87396 366.03125L160.87396 365.60938Q160.87396 365.15625 160.62396 364.85938Q160.37396 364.54688 159.93646 364.54688Q159.49896 364.54688 159.24896 364.85938Q158.99896 365.15625 158.99896 365.625L158.99896 366.0625ZM162.34271 370.40625Q162.34271 369.64062 162.82709 369.15625Q163.32709 368.65625 164.09271 368.65625Q164.85834 368.65625 165.34271 369.15625Q165.84271 369.64062 165.84271 370.45312L165.84271 370.85938Q165.84271 371.625 165.35834 372.125Q164.87396 372.625 164.10834 372.625Q163.34271 372.625 162.84271 372.14062Q162.34271 371.64062 162.34271 370.82812L162.34271 370.40625ZM163.15521 370.85938Q163.15521 371.32812 163.40521 371.625Q163.67084 371.92188 164.10834 371.92188Q164.53021 371.92188 164.78021 371.64062Q165.03021 371.34375 165.03021 370.84375L165.03021 370.40625Q165.03021 369.9375 164.76459 369.65625Q164.51459 369.35938 164.09271 369.35938Q163.67084 369.35938 163.40521 369.65625Q163.15521 369.9375 163.15521 370.4375L163.15521 370.85938ZM160.20209 371.85938L159.57709 371.46875L163.74896 364.79688L164.35834 365.1875L160.20209 371.85938Z" fill-rule="nonzero"/><path fill="#757575" d="M207.35855 372.5L201.7648 372.5L201.7648 371.71875L204.71793 368.4375Q205.37418 367.6875 205.62418 367.23438Q205.87418 366.76562 205.87418 366.26562Q205.87418 365.59375 205.46793 365.17188Q205.0773 364.73438 204.3898 364.73438Q203.59293 364.73438 203.1398 365.20312Q202.68668 365.65625 202.68668 366.48438L201.60855 366.48438Q201.60855 365.29688 202.35855 364.57812Q203.12418 363.84375 204.3898 363.84375Q205.59293 363.84375 206.28043 364.46875Q206.96793 365.09375 206.96793 366.14062Q206.96793 367.39062 205.35855 369.14062L203.0773 371.60938L207.35855 371.60938L207.35855 372.5ZM208.84293 374.20312L208.23355 373.78125Q208.78043 373.01562 208.81168 372.1875L208.81168 371.21875L209.87418 371.21875L209.87418 372.0625Q209.87418 372.65625 209.5773 373.25Q209.28043 373.84375 208.84293 374.20312ZM216.12418 368.85938Q216.12418 370.76562 215.46793 371.70312Q214.8273 372.625 213.43668 372.625Q212.0773 372.625 211.42105 371.71875Q210.7648 370.8125 210.73355 369.0L210.73355 367.5625Q210.73355 365.67188 211.37418 364.76562Q212.03043 363.84375 213.42105 363.84375Q214.79605 363.84375 215.4523 364.73438Q216.10855 365.60938 216.12418 367.45312L216.12418 368.85938ZM215.03043 367.375Q215.03043 366.0 214.6398 365.375Q214.2648 364.73438 213.42105 364.73438Q212.59293 364.73438 212.2023 365.375Q211.8273 366.0 211.8273 367.29688L211.8273 369.03125Q211.8273 370.40625 212.21793 371.07812Q212.62418 371.73438 213.43668 371.73438Q214.23355 371.73438 214.62418 371.10938Q215.0148 370.48438 215.03043 369.15625L215.03043 367.375ZM218.2648 368.21875L218.7023 363.96875L223.0773 363.96875L223.0773 364.96875L219.62418 364.96875L219.35855 367.29688Q219.99918 366.92188 220.79605 366.92188Q221.9523 366.92188 222.6398 367.70312Q223.3273 368.46875 223.3273 369.78125Q223.3273 371.09375 222.60855 371.85938Q221.90543 372.625 220.62418 372.625Q219.49918 372.625 218.78043 372.0Q218.06168 371.35938 217.96793 370.25L218.98355 370.25Q219.09293 370.98438 219.5148 371.35938Q219.93668 371.73438 220.62418 371.73438Q221.37418 371.73438 221.81168 371.21875Q222.24918 370.70312 222.24918 369.79688Q222.24918 368.9375 221.78043 368.42188Q221.31168 367.90625 220.53043 367.90625Q219.8273 367.90625 219.42105 368.20312L219.1398 368.4375L218.2648 368.21875ZM230.1398 369.3125L227.28043 369.3125L227.28043 368.4375L230.1398 368.4375L230.1398 369.3125ZM238.34293 369.64062L239.53043 369.64062L239.53043 370.51562L238.34293 370.51562L238.34293 372.5L237.2648 372.5L237.2648 370.51562L233.37418 370.51562L233.37418 369.875L237.18668 363.96875L238.34293 363.96875L238.34293 369.64062ZM234.60855 369.64062L237.2648 369.64062L237.2648 365.45312L237.12418 365.6875L234.60855 369.64062ZM240.84293 374.20312L240.23355 373.78125Q240.78043 373.01562 240.81168 372.1875L240.81168 371.21875L241.87418 371.21875L241.87418 372.0625Q241.87418 372.65625 241.5773 373.25Q241.28043 373.84375 240.84293 374.20312ZM246.3273 372.5L245.24918 372.5L245.24918 365.28125L243.06168 366.07812L243.06168 365.09375L246.17105 363.92188L246.3273 363.92188L246.3273 372.5ZM255.12418 368.85938Q255.12418 370.76562 254.46793 371.70312Q253.8273 372.625 252.43668 372.625Q251.0773 372.625 250.42105 371.71875Q249.7648 370.8125 249.73355 369.0L249.73355 367.5625Q249.73355 365.67188 250.37418 364.76562Q251.03043 363.84375 252.42105 363.84375Q253.79605 363.84375 254.4523 364.73438Q255.10855 365.60938 255.12418 367.45312L255.12418 368.85938ZM254.03043 367.375Q254.03043 366.0 253.6398 365.375Q253.2648 364.73438 252.42105 364.73438Q251.59293 364.73438 251.2023 365.375Q250.8273 366.0 250.8273 367.29688L250.8273 369.03125Q250.8273 370.40625 251.21793 371.07812Q251.62418 371.73438 252.43668 371.73438Q253.23355 371.73438 253.62418 371.10938Q254.0148 370.48438 254.03043 369.15625L254.03043 367.375ZM256.67105 365.60938Q256.67105 364.84375 257.15543 364.34375Q257.65543 363.84375 258.42105 363.84375Q259.2023 363.84375 259.68668 364.34375Q260.17105 364.84375 260.17105 365.64062L260.17105 366.0625Q260.17105 366.82812 259.67105 367.32812Q259.18668 367.8125 258.43668 367.8125Q257.67105 367.8125 257.17105 367.32812Q256.67105 366.82812 256.67105 366.01562L256.67105 365.60938ZM257.48355 366.0625Q257.48355 366.51562 257.73355 366.8125Q257.99918 367.10938 258.43668 367.10938Q258.85855 367.10938 259.10855 366.82812Q259.35855 366.53125 259.35855 366.03125L259.35855 365.60938Q259.35855 365.15625 259.10855 364.85938Q258.85855 364.54688 258.42105 364.54688Q257.98355 364.54688 257.73355 364.85938Q257.48355 365.15625 257.48355 365.625L257.48355 366.0625ZM260.8273 370.40625Q260.8273 369.64062 261.31168 369.15625Q261.81168 368.65625 262.5773 368.65625Q263.34293 368.65625 263.8273 369.15625Q264.3273 369.64062 264.3273 370.45312L264.3273 370.85938Q264.3273 371.625 263.84293 372.125Q263.35855 372.625 262.59293 372.625Q261.8273 372.625 261.3273 372.14062Q260.8273 371.64062 260.8273 370.82812L260.8273 370.40625ZM261.6398 370.85938Q261.6398 371.32812 261.8898 371.625Q262.15543 371.92188 262.59293 371.92188Q263.0148 371.92188 263.2648 371.64062Q263.5148 371.34375 263.5148 370.84375L263.5148 370.40625Q263.5148 369.9375 263.24918 369.65625Q262.99918 369.35938 262.5773 369.35938Q262.15543 369.35938 261.8898 369.65625Q261.6398 369.9375 261.6398 370.4375L261.6398 370.85938ZM258.68668 371.85938L258.06168 371.46875L262.23355 364.79688L262.84293 365.1875L258.68668 371.85938Z" fill-rule="nonzero"/><path fill="#757575" d="M296.8275 369.64062L298.015 369.64062L298.015 370.51562L296.8275 370.51562L296.8275 372.5L295.7494 372.5L295.7494 370.51562L291.85876 370.51562L291.85876 369.875L295.67126 363.96875L296.8275 363.96875L296.8275 369.64062ZM293.09314 369.64062L295.7494 369.64062L295.7494 365.45312L295.60876 365.6875L293.09314 369.64062ZM299.3275 374.20312L298.71814 373.78125Q299.265 373.01562 299.29626 372.1875L299.29626 371.21875L300.35876 371.21875L300.35876 372.0625Q300.35876 372.65625 300.0619 373.25Q299.765 373.84375 299.3275 374.20312ZM304.8119 372.5L303.73376 372.5L303.73376 365.28125L301.54626 366.07812L301.54626 365.09375L304.65564 363.92188L304.8119 363.92188L304.8119 372.5ZM313.60876 368.85938Q313.60876 370.76562 312.9525 371.70312Q312.3119 372.625 310.92126 372.625Q309.5619 372.625 308.90564 371.71875Q308.2494 370.8125 308.21814 369.0L308.21814 367.5625Q308.21814 365.67188 308.85876 364.76562Q309.515 363.84375 310.90564 363.84375Q312.28064 363.84375 312.9369 364.73438Q313.59314 365.60938 313.60876 367.45312L313.60876 368.85938ZM312.515 367.375Q312.515 366.0 312.1244 365.375Q311.7494 364.73438 310.90564 364.73438Q310.0775 364.73438 309.6869 365.375Q309.3119 366.0 309.3119 367.29688L309.3119 369.03125Q309.3119 370.40625 309.7025 371.07812Q310.10876 371.73438 310.92126 371.73438Q311.71814 371.73438 312.10876 371.10938Q312.4994 370.48438 312.515 369.15625L312.515 367.375ZM320.6244 369.3125L317.765 369.3125L317.765 368.4375L320.6244 368.4375L320.6244 369.3125ZM328.515 363.96875L328.515 364.875L328.3119 364.875Q327.04626 364.90625 326.29626 365.64062Q325.54626 366.35938 325.42126 367.67188Q326.10876 366.90625 327.265 366.90625Q328.3744 366.90625 329.04626 367.6875Q329.71814 368.46875 329.71814 369.71875Q329.71814 371.03125 328.9994 371.82812Q328.28064 372.625 327.0619 372.625Q325.84314 372.625 325.0775 371.6875Q324.3275 370.73438 324.3275 369.25L324.3275 368.84375Q324.3275 366.48438 325.3275 365.23438Q326.3275 363.98438 328.3119 363.96875L328.515 363.96875ZM327.09314 367.8125Q326.53064 367.8125 326.0619 368.14062Q325.59314 368.46875 325.40564 368.98438L325.40564 369.375Q325.40564 370.4375 325.8744 371.07812Q326.35876 371.71875 327.0619 371.71875Q327.79626 371.71875 328.21814 371.1875Q328.64 370.64062 328.64 369.76562Q328.64 368.89062 328.21814 368.35938Q327.79626 367.8125 327.09314 367.8125ZM331.3275 374.20312L330.71814 373.78125Q331.265 373.01562 331.29626 372.1875L331.29626 371.21875L332.35876 371.21875L332.35876 372.0625Q332.35876 372.65625 332.0619 373.25Q331.765 373.84375 331.3275 374.20312ZM336.8119 372.5L335.73376 372.5L335.73376 365.28125L333.54626 366.07812L333.54626 365.09375L336.65564 363.92188L336.8119 363.92188L336.8119 372.5ZM344.8275 369.64062L346.015 369.64062L346.015 370.51562L344.8275 370.51562L344.8275 372.5L343.7494 372.5L343.7494 370.51562L339.85876 370.51562L339.85876 369.875L343.67126 363.96875L344.8275 363.96875L344.8275 369.64062ZM341.09314 369.64062L343.7494 369.64062L343.7494 365.45312L343.60876 365.6875L341.09314 369.64062ZM347.15564 365.60938Q347.15564 364.84375 347.64 364.34375Q348.14 363.84375 348.90564 363.84375Q349.6869 363.84375 350.17126 364.34375Q350.65564 364.84375 350.65564 365.64062L350.65564 366.0625Q350.65564 366.82812 350.15564 367.32812Q349.67126 367.8125 348.92126 367.8125Q348.15564 367.8125 347.65564 367.32812Q347.15564 366.82812 347.15564 366.01562L347.15564 365.60938ZM347.96814 366.0625Q347.96814 366.51562 348.21814 366.8125Q348.48376 367.10938 348.92126 367.10938Q349.34314 367.10938 349.59314 366.82812Q349.84314 366.53125 349.84314 366.03125L349.84314 365.60938Q349.84314 365.15625 349.59314 364.85938Q349.34314 364.54688 348.90564 364.54688Q348.46814 364.54688 348.21814 364.85938Q347.96814 365.15625 347.96814 365.625L347.96814 366.0625ZM351.3119 370.40625Q351.3119 369.64062 351.79626 369.15625Q352.29626 368.65625 353.0619 368.65625Q353.8275 368.65625 354.3119 369.15625Q354.8119 369.64062 354.8119 370.45312L354.8119 370.85938Q354.8119 371.625 354.3275 372.125Q353.84314 372.625 353.0775 372.625Q352.3119 372.625 351.8119 372.14062Q351.3119 371.64062 351.3119 370.82812L351.3119 370.40625ZM352.1244 370.85938Q352.1244 371.32812 352.3744 371.625Q352.64 371.92188 353.0775 371.92188Q353.4994 371.92188 353.7494 371.64062Q353.9994 371.34375 353.9994 370.84375L353.9994 370.40625Q353.9994 369.9375 353.73376 369.65625Q353.48376 369.35938 353.0619 369.35938Q352.64 369.35938 352.3744 369.65625Q352.1244 369.9375 352.1244 370.4375L352.1244 370.85938ZM349.17126 371.85938L348.54626 371.46875L352.71814 364.79688L353.3275 365.1875L349.17126 371.85938Z" fill-rule="nonzero"/><path fill="#757575" d="M386.99957 363.96875L386.99957 364.875L386.79645 364.875Q385.53082 364.90625 384.78082 365.64062Q384.03082 366.35938 383.90582 367.67188Q384.59332 366.90625 385.74957 366.90625Q386.85895 366.90625 387.53082 367.6875Q388.2027 368.46875 388.2027 369.71875Q388.2027 371.03125 387.48395 371.82812Q386.7652 372.625 385.54645 372.625Q384.3277 372.625 383.56207 371.6875Q382.81207 370.73438 382.81207 369.25L382.81207 368.84375Q382.81207 366.48438 383.81207 365.23438Q384.81207 363.98438 386.79645 363.96875L386.99957 363.96875ZM385.5777 367.8125Q385.0152 367.8125 384.54645 368.14062Q384.0777 368.46875 383.8902 368.98438L383.8902 369.375Q383.8902 370.4375 384.35895 371.07812Q384.84332 371.71875 385.54645 371.71875Q386.28082 371.71875 386.7027 371.1875Q387.12457 370.64062 387.12457 369.76562Q387.12457 368.89062 386.7027 368.35938Q386.28082 367.8125 385.5777 367.8125ZM389.81207 374.20312L389.2027 373.78125Q389.74957 373.01562 389.78082 372.1875L389.78082 371.21875L390.84332 371.21875L390.84332 372.0625Q390.84332 372.65625 390.54645 373.25Q390.24957 373.84375 389.81207 374.20312ZM395.29645 372.5L394.21832 372.5L394.21832 365.28125L392.03082 366.07812L392.03082 365.09375L395.1402 363.92188L395.29645 363.92188L395.29645 372.5ZM403.31207 369.64062L404.49957 369.64062L404.49957 370.51562L403.31207 370.51562L403.31207 372.5L402.23395 372.5L402.23395 370.51562L398.34332 370.51562L398.34332 369.875L402.15582 363.96875L403.31207 363.96875L403.31207 369.64062ZM399.5777 369.64062L402.23395 369.64062L402.23395 365.45312L402.09332 365.6875L399.5777 369.64062ZM411.10895 369.3125L408.24957 369.3125L408.24957 368.4375L411.10895 368.4375L411.10895 369.3125ZM419.92145 366.1875Q419.92145 366.82812 419.5777 367.32812Q419.23395 367.82812 418.67145 368.10938Q419.3277 368.39062 419.71832 368.95312Q420.10895 369.5 420.10895 370.20312Q420.10895 371.29688 419.35895 371.96875Q418.62457 372.625 417.40582 372.625Q416.17145 372.625 415.42145 371.96875Q414.68707 371.29688 414.68707 370.20312Q414.68707 369.5 415.06207 368.95312Q415.43707 368.39062 416.10895 368.10938Q415.54645 367.82812 415.21832 367.32812Q414.8902 366.82812 414.8902 366.1875Q414.8902 365.10938 415.5777 364.48438Q416.2652 363.84375 417.40582 363.84375Q418.53082 363.84375 419.21832 364.48438Q419.92145 365.10938 419.92145 366.1875ZM419.03082 370.17188Q419.03082 369.45312 418.5777 369.01562Q418.12457 368.5625 417.3902 368.5625Q416.65582 368.5625 416.2027 369.01562Q415.7652 369.45312 415.7652 370.1875Q415.7652 370.90625 416.2027 371.32812Q416.6402 371.73438 417.40582 371.73438Q418.15582 371.73438 418.59332 371.3125Q419.03082 370.89062 419.03082 370.17188ZM417.40582 364.73438Q416.7652 364.73438 416.35895 365.14062Q415.96832 365.53125 415.96832 366.21875Q415.96832 366.85938 416.35895 367.26562Q416.74957 367.67188 417.3902 367.67188Q418.04645 367.67188 418.43707 367.26562Q418.8277 366.85938 418.8277 366.21875Q418.8277 365.5625 418.42145 365.15625Q418.0152 364.73438 417.40582 364.73438ZM421.81207 374.20312L421.2027 373.78125Q421.74957 373.01562 421.78082 372.1875L421.78082 371.21875L422.84332 371.21875L422.84332 372.0625Q422.84332 372.65625 422.54645 373.25Q422.24957 373.84375 421.81207 374.20312ZM429.3277 372.5L423.73395 372.5L423.73395 371.71875L426.68707 368.4375Q427.34332 367.6875 427.59332 367.23438Q427.84332 366.76562 427.84332 366.26562Q427.84332 365.59375 427.43707 365.17188Q427.04645 364.73438 426.35895 364.73438Q425.56207 364.73438 425.10895 365.20312Q424.65582 365.65625 424.65582 366.48438L423.5777 366.48438Q423.5777 365.29688 424.3277 364.57812Q425.09332 363.84375 426.35895 363.84375Q427.56207 363.84375 428.24957 364.46875Q428.93707 365.09375 428.93707 366.14062Q428.93707 367.39062 427.3277 369.14062L425.04645 371.60938L429.3277 371.60938L429.3277 372.5ZM436.09332 368.85938Q436.09332 370.76562 435.43707 371.70312Q434.79645 372.625 433.40582 372.625Q432.04645 372.625 431.3902 371.71875Q430.73395 370.8125 430.7027 369.0L430.7027 367.5625Q430.7027 365.67188 431.34332 364.76562Q431.99957 363.84375 433.3902 363.84375Q434.7652 363.84375 435.42145 364.73438Q436.0777 365.60938 436.09332 367.45312L436.09332 368.85938ZM434.99957 367.375Q434.99957 366.0 434.60895 365.375Q434.23395 364.73438 433.3902 364.73438Q432.56207 364.73438 432.17145 365.375Q431.79645 366.0 431.79645 367.29688L431.79645 369.03125Q431.79645 370.40625 432.18707 371.07812Q432.59332 371.73438 433.40582 371.73438Q434.2027 371.73438 434.59332 371.10938Q434.98395 370.48438 434.99957 369.15625L434.99957 367.375ZM437.6402 365.60938Q437.6402 364.84375 438.12457 364.34375Q438.62457 363.84375 439.3902 363.84375Q440.17145 363.84375 440.65582 364.34375Q441.1402 364.84375 441.1402 365.64062L441.1402 366.0625Q441.1402 366.82812 440.6402 367.32812Q440.15582 367.8125 439.40582 367.8125Q438.6402 367.8125 438.1402 367.32812Q437.6402 366.82812 437.6402 366.01562L437.6402 365.60938ZM438.4527 366.0625Q438.4527 366.51562 438.7027 366.8125Q438.96832 367.10938 439.40582 367.10938Q439.8277 367.10938 440.0777 366.82812Q440.3277 366.53125 440.3277 366.03125L440.3277 365.60938Q440.3277 365.15625 440.0777 364.85938Q439.8277 364.54688 439.3902 364.54688Q438.9527 364.54688 438.7027 364.85938Q438.4527 365.15625 438.4527 365.625L438.4527 366.0625ZM441.79645 370.40625Q441.79645 369.64062 442.28082 369.15625Q442.78082 368.65625 443.54645 368.65625Q444.31207 368.65625 444.79645 369.15625Q445.29645 369.64062 445.29645 370.45312L445.29645 370.85938Q445.29645 371.625 444.81207 372.125Q444.3277 372.625 443.56207 372.625Q442.79645 372.625 442.29645 372.14062Q441.79645 371.64062 441.79645 370.82812L441.79645 370.40625ZM442.60895 370.85938Q442.60895 371.32812 442.85895 371.625Q443.12457 371.92188 443.56207 371.92188Q443.98395 371.92188 444.23395 371.64062Q444.48395 371.34375 444.48395 370.84375L444.48395 370.40625Q444.48395 369.9375 444.21832 369.65625Q443.96832 369.35938 443.54645 369.35938Q443.12457 369.35938 442.85895 369.65625Q442.60895 369.9375 442.60895 370.4375L442.60895 370.85938ZM439.65582 371.85938L439.03082 371.46875L443.2027 364.79688L443.81207 365.1875L439.65582 371.85938Z" fill-rule="nonzero"/><path fill="#757575" d="M474.90604 366.1875Q474.90604 366.82812 474.5623 367.32812Q474.21854 367.82812 473.65604 368.10938Q474.3123 368.39062 474.7029 368.95312Q475.09354 369.5 475.09354 370.20312Q475.09354 371.29688 474.34354 371.96875Q473.60916 372.625 472.3904 372.625Q471.15604 372.625 470.40604 371.96875Q469.67166 371.29688 469.67166 370.20312Q469.67166 369.5 470.04666 368.95312Q470.42166 368.39062 471.09354 368.10938Q470.53104 367.82812 470.2029 367.32812Q469.8748 366.82812 469.8748 366.1875Q469.8748 365.10938 470.5623 364.48438Q471.2498 363.84375 472.3904 363.84375Q473.5154 363.84375 474.2029 364.48438Q474.90604 365.10938 474.90604 366.1875ZM474.0154 370.17188Q474.0154 369.45312 473.5623 369.01562Q473.10916 368.5625 472.3748 368.5625Q471.6404 368.5625 471.1873 369.01562Q470.7498 369.45312 470.7498 370.1875Q470.7498 370.90625 471.1873 371.32812Q471.6248 371.73438 472.3904 371.73438Q473.1404 371.73438 473.5779 371.3125Q474.0154 370.89062 474.0154 370.17188ZM472.3904 364.73438Q471.7498 364.73438 471.34354 365.14062Q470.9529 365.53125 470.9529 366.21875Q470.9529 366.85938 471.34354 367.26562Q471.73416 367.67188 472.3748 367.67188Q473.03104 367.67188 473.42166 367.26562Q473.8123 366.85938 473.8123 366.21875Q473.8123 365.5625 473.40604 365.15625Q472.9998 364.73438 472.3904 364.73438ZM476.79666 374.20312L476.1873 373.78125Q476.73416 373.01562 476.7654 372.1875L476.7654 371.21875L477.8279 371.21875L477.8279 372.0625Q477.8279 372.65625 477.53104 373.25Q477.23416 373.84375 476.79666 374.20312ZM484.3123 372.5L478.71854 372.5L478.71854 371.71875L481.67166 368.4375Q482.3279 367.6875 482.5779 367.23438Q482.8279 366.76562 482.8279 366.26562Q482.8279 365.59375 482.42166 365.17188Q482.03104 364.73438 481.34354 364.73438Q480.54666 364.73438 480.09354 365.20312Q479.6404 365.65625 479.6404 366.48438L478.5623 366.48438Q478.5623 365.29688 479.3123 364.57812Q480.0779 363.84375 481.34354 363.84375Q482.54666 363.84375 483.23416 364.46875Q483.92166 365.09375 483.92166 366.14062Q483.92166 367.39062 482.3123 369.14062L480.03104 371.60938L484.3123 371.60938L484.3123 372.5ZM491.0779 368.85938Q491.0779 370.76562 490.42166 371.70312Q489.78104 372.625 488.3904 372.625Q487.03104 372.625 486.3748 371.71875Q485.71854 370.8125 485.6873 369.0L485.6873 367.5625Q485.6873 365.67188 486.3279 364.76562Q486.98416 363.84375 488.3748 363.84375Q489.7498 363.84375 490.40604 364.73438Q491.0623 365.60938 491.0779 367.45312L491.0779 368.85938ZM489.98416 367.375Q489.98416 366.0 489.59354 365.375Q489.21854 364.73438 488.3748 364.73438Q487.54666 364.73438 487.15604 365.375Q486.78104 366.0 486.78104 367.29688L486.78104 369.03125Q486.78104 370.40625 487.17166 371.07812Q487.5779 371.73438 488.3904 371.73438Q489.1873 371.73438 489.5779 371.10938Q489.96854 370.48438 489.98416 369.15625L489.98416 367.375ZM498.09354 369.3125L495.23416 369.3125L495.23416 368.4375L498.09354 368.4375L498.09354 369.3125ZM505.28104 372.5L504.2029 372.5L504.2029 365.28125L502.0154 366.07812L502.0154 365.09375L505.1248 363.92188L505.28104 363.92188L505.28104 372.5ZM514.0779 368.85938Q514.0779 370.76562 513.42163 371.70312Q512.781 372.625 511.3904 372.625Q510.03104 372.625 509.3748 371.71875Q508.71854 370.8125 508.6873 369.0L508.6873 367.5625Q508.6873 365.67188 509.3279 364.76562Q509.98416 363.84375 511.3748 363.84375Q512.74976 363.84375 513.406 364.73438Q514.06226 365.60938 514.0779 367.45312L514.0779 368.85938ZM512.98413 367.375Q512.98413 366.0 512.5935 365.375Q512.2185 364.73438 511.3748 364.73438Q510.54666 364.73438 510.15604 365.375Q509.78104 366.0 509.78104 367.29688L509.78104 369.03125Q509.78104 370.40625 510.17166 371.07812Q510.5779 371.73438 511.3904 371.73438Q512.18726 371.73438 512.5779 371.10938Q512.9685 370.48438 512.98413 369.15625L512.98413 367.375ZM515.79663 374.20312L515.18726 373.78125Q515.73413 373.01562 515.7654 372.1875L515.7654 371.21875L516.8279 371.21875L516.8279 372.0625Q516.8279 372.65625 516.531 373.25Q516.23413 373.84375 515.79663 374.20312ZM523.31226 372.5L517.7185 372.5L517.7185 371.71875L520.67163 368.4375Q521.3279 367.6875 521.5779 367.23438Q521.8279 366.76562 521.8279 366.26562Q521.8279 365.59375 521.42163 365.17188Q521.031 364.73438 520.3435 364.73438Q519.54663 364.73438 519.0935 365.20312Q518.6404 365.65625 518.6404 366.48438L517.56226 366.48438Q517.56226 365.29688 518.31226 364.57812Q519.0779 363.84375 520.3435 363.84375Q521.54663 363.84375 522.23413 364.46875Q522.92163 365.09375 522.92163 366.14062Q522.92163 367.39062 521.31226 369.14062L519.031 371.60938L523.31226 371.60938L523.31226 372.5ZM525.2185 368.21875L525.656 363.96875L530.031 363.96875L530.031 364.96875L526.5779 364.96875L526.31226 367.29688Q526.9529 366.92188 527.74976 366.92188Q528.906 366.92188 529.5935 367.70312Q530.281 368.46875 530.281 369.78125Q530.281 371.09375 529.56226 371.85938Q528.85913 372.625 527.5779 372.625Q526.4529 372.625 525.73413 372.0Q525.0154 371.35938 524.92163 370.25L525.93726 370.25Q526.04663 370.98438 526.4685 371.35938Q526.8904 371.73438 527.5779 371.73438Q528.3279 371.73438 528.7654 371.21875Q529.2029 370.70312 529.2029 369.79688Q529.2029 368.9375 528.73413 368.42188Q528.2654 367.90625 527.48413 367.90625Q526.781 367.90625 526.37476 368.20312L526.0935 368.4375L525.2185 368.21875ZM531.62476 365.60938Q531.62476 364.84375 532.10913 364.34375Q532.60913 363.84375 533.37476 363.84375Q534.156 363.84375 534.6404 364.34375Q535.12476 364.84375 535.12476 365.64062L535.12476 366.0625Q535.12476 366.82812 534.62476 367.32812Q534.1404 367.8125 533.3904 367.8125Q532.62476 367.8125 532.12476 367.32812Q531.62476 366.82812 531.62476 366.01562L531.62476 365.60938ZM532.43726 366.0625Q532.43726 366.51562 532.68726 366.8125Q532.9529 367.10938 533.3904 367.10938Q533.81226 367.10938 534.06226 366.82812Q534.31226 366.53125 534.31226 366.03125L534.31226 365.60938Q534.31226 365.15625 534.06226 364.85938Q533.81226 364.54688 533.37476 364.54688Q532.93726 364.54688 532.68726 364.85938Q532.43726 365.15625 532.43726 365.625L532.43726 366.0625ZM535.781 370.40625Q535.781 369.64062 536.2654 369.15625Q536.7654 368.65625 537.531 368.65625Q538.29663 368.65625 538.781 369.15625Q539.281 369.64062 539.281 370.45312L539.281 370.85938Q539.281 371.625 538.79663 372.125Q538.31226 372.625 537.54663 372.625Q536.781 372.625 536.281 372.14062Q535.781 371.64062 535.781 370.82812L535.781 370.40625ZM536.5935 370.85938Q536.5935 371.32812 536.8435 371.625Q537.10913 371.92188 537.54663 371.92188Q537.9685 371.92188 538.2185 371.64062Q538.4685 371.34375 538.4685 370.84375L538.4685 370.40625Q538.4685 369.9375 538.2029 369.65625Q537.9529 369.35938 537.531 369.35938Q537.10913 369.35938 536.8435 369.65625Q536.5935 369.9375 536.5935 370.4375L536.5935 370.85938ZM533.6404 371.85938L533.0154 371.46875L537.18726 364.79688L537.79663 365.1875L533.6404 371.85938Z" fill-rule="nonzero"/><path fill="#757575" d="M560.2656 372.5L559.1875 372.5L559.1875 365.28125L557.0 366.07812L557.0 365.09375L560.1094 363.92188L560.2656 363.92188L560.2656 372.5ZM569.0625 368.85938Q569.0625 370.76562 568.40625 371.70312Q567.7656 372.625 566.375 372.625Q565.0156 372.625 564.3594 371.71875Q563.7031 370.8125 563.6719 369.0L563.6719 367.5625Q563.6719 365.67188 564.3125 364.76562Q564.96875 363.84375 566.3594 363.84375Q567.7344 363.84375 568.3906 364.73438Q569.0469 365.60938 569.0625 367.45312L569.0625 368.85938ZM567.96875 367.375Q567.96875 366.0 567.5781 365.375Q567.2031 364.73438 566.3594 364.73438Q565.53125 364.73438 565.1406 365.375Q564.7656 366.0 564.7656 367.29688L564.7656 369.03125Q564.7656 370.40625 565.15625 371.07812Q565.5625 371.73438 566.375 371.73438Q567.1719 371.73438 567.5625 371.10938Q567.9531 370.48438 567.96875 369.15625L567.96875 367.375ZM570.78125 374.20312L570.1719 373.78125Q570.71875 373.01562 570.75 372.1875L570.75 371.21875L571.8125 371.21875L571.8125 372.0625Q571.8125 372.65625 571.5156 373.25Q571.21875 373.84375 570.78125 374.20312ZM578.2969 372.5L572.7031 372.5L572.7031 371.71875L575.65625 368.4375Q576.3125 367.6875 576.5625 367.23438Q576.8125 366.76562 576.8125 366.26562Q576.8125 365.59375 576.40625 365.17188Q576.0156 364.73438 575.3281 364.73438Q574.53125 364.73438 574.0781 365.20312Q573.625 365.65625 573.625 366.48438L572.5469 366.48438Q572.5469 365.29688 573.2969 364.57812Q574.0625 363.84375 575.3281 363.84375Q576.53125 363.84375 577.21875 364.46875Q577.90625 365.09375 577.90625 366.14062Q577.90625 367.39062 576.2969 369.14062L574.0156 371.60938L578.2969 371.60938L578.2969 372.5ZM580.2031 368.21875L580.6406 363.96875L585.0156 363.96875L585.0156 364.96875L581.5625 364.96875L581.2969 367.29688Q581.9375 366.92188 582.7344 366.92188Q583.8906 366.92188 584.5781 367.70312Q585.2656 368.46875 585.2656 369.78125Q585.2656 371.09375 584.5469 371.85938Q583.84375 372.625 582.5625 372.625Q581.4375 372.625 580.71875 372.0Q580.0 371.35938 579.90625 370.25L580.9219 370.25Q581.03125 370.98438 581.4531 371.35938Q581.875 371.73438 582.5625 371.73438Q583.3125 371.73438 583.75 371.21875Q584.1875 370.70312 584.1875 369.79688Q584.1875 368.9375 583.71875 368.42188Q583.25 367.90625 582.46875 367.90625Q581.7656 367.90625 581.3594 368.20312L581.0781 368.4375L580.2031 368.21875ZM592.0781 369.3125L589.21875 369.3125L589.21875 368.4375L592.0781 368.4375L592.0781 369.3125ZM599.2656 372.5L598.1875 372.5L598.1875 365.28125L596.0 366.07812L596.0 365.09375L599.1094 363.92188L599.2656 363.92188L599.2656 372.5ZM608.2969 372.5L602.7031 372.5L602.7031 371.71875L605.65625 368.4375Q606.3125 367.6875 606.5625 367.23438Q606.8125 366.76562 606.8125 366.26562Q606.8125 365.59375 606.40625 365.17188Q606.0156 364.73438 605.3281 364.73438Q604.53125 364.73438 604.0781 365.20312Q603.625 365.65625 603.625 366.48438L602.5469 366.48438Q602.5469 365.29688 603.2969 364.57812Q604.0625 363.84375 605.3281 363.84375Q606.53125 363.84375 607.21875 364.46875Q607.90625 365.09375 607.90625 366.14062Q607.90625 367.39062 606.2969 369.14062L604.0156 371.60938L608.2969 371.60938L608.2969 372.5ZM609.78125 374.20312L609.1719 373.78125Q609.71875 373.01562 609.75 372.1875L609.75 371.21875L610.8125 371.21875L610.8125 372.0625Q610.8125 372.65625 610.5156 373.25Q610.21875 373.84375 609.78125 374.20312ZM613.28125 367.70312L614.09375 367.70312Q614.875 367.6875 615.3125 367.29688Q615.75 366.90625 615.75 366.23438Q615.75 364.73438 614.25 364.73438Q613.5469 364.73438 613.125 365.14062Q612.71875 365.54688 612.71875 366.20312L611.625 366.20312Q611.625 365.1875 612.3594 364.51562Q613.1094 363.84375 614.25 363.84375Q615.4531 363.84375 616.1406 364.48438Q616.8281 365.125 616.8281 366.26562Q616.8281 366.82812 616.46875 367.34375Q616.1094 367.85938 615.4844 368.125Q616.1875 368.34375 616.5625 368.85938Q616.9531 369.375 616.9531 370.125Q616.9531 371.26562 616.2031 371.95312Q615.4531 372.625 614.25 372.625Q613.0625 372.625 612.2969 371.96875Q611.5469 371.3125 611.5469 370.25L612.6406 370.25Q612.6406 370.92188 613.0781 371.32812Q613.5156 371.73438 614.2656 371.73438Q615.0469 371.73438 615.4531 371.32812Q615.875 370.90625 615.875 370.14062Q615.875 369.40625 615.4219 369.01562Q614.96875 368.60938 614.09375 368.59375L613.28125 368.59375L613.28125 367.70312ZM624.0625 368.85938Q624.0625 370.76562 623.40625 371.70312Q622.7656 372.625 621.375 372.625Q620.0156 372.625 619.3594 371.71875Q618.7031 370.8125 618.6719 369.0L618.6719 367.5625Q618.6719 365.67188 619.3125 364.76562Q619.96875 363.84375 621.3594 363.84375Q622.7344 363.84375 623.3906 364.73438Q624.0469 365.60938 624.0625 367.45312L624.0625 368.85938ZM622.96875 367.375Q622.96875 366.0 622.5781 365.375Q622.2031 364.73438 621.3594 364.73438Q620.53125 364.73438 620.1406 365.375Q619.7656 366.0 619.7656 367.29688L619.7656 369.03125Q619.7656 370.40625 620.15625 371.07812Q620.5625 371.73438 621.375 371.73438Q622.1719 371.73438 622.5625 371.10938Q622.9531 370.48438 622.96875 369.15625L622.96875 367.375ZM625.6094 365.60938Q625.6094 364.84375 626.09375 364.34375Q626.59375 363.84375 627.3594 363.84375Q628.1406 363.84375 628.625 364.34375Q629.1094 364.84375 629.1094 365.64062L629.1094 366.0625Q629.1094 366.82812 628.6094 367.32812Q628.125 367.8125 627.375 367.8125Q626.6094 367.8125 626.1094 367.32812Q625.6094 366.82812 625.6094 366.01562L625.6094 365.60938ZM626.4219 366.0625Q626.4219 366.51562 626.6719 366.8125Q626.9375 367.10938 627.375 367.10938Q627.7969 367.10938 628.0469 366.82812Q628.2969 366.53125 628.2969 366.03125L628.2969 365.60938Q628.2969 365.15625 628.0469 364.85938Q627.7969 364.54688 627.3594 364.54688Q626.9219 364.54688 626.6719 364.85938Q626.4219 365.15625 626.4219 365.625L626.4219 366.0625ZM629.7656 370.40625Q629.7656 369.64062 630.25 369.15625Q630.75 368.65625 631.5156 368.65625Q632.28125 368.65625 632.7656 369.15625Q633.2656 369.64062 633.2656 370.45312L633.2656 370.85938Q633.2656 371.625 632.78125 372.125Q632.2969 372.625 631.53125 372.625Q630.7656 372.625 630.2656 372.14062Q629.7656 371.64062 629.7656 370.82812L629.7656 370.40625ZM630.5781 370.85938Q630.5781 371.32812 630.8281 371.625Q631.09375 371.92188 631.53125 371.92188Q631.9531 371.92188 632.2031 371.64062Q632.4531 371.34375 632.4531 370.84375L632.4531 370.40625Q632.4531 369.9375 632.1875 369.65625Q631.9375 369.35938 631.5156 369.35938Q631.09375 369.35938 630.8281 369.65625Q630.5781 369.9375 630.5781 370.4375L630.5781 370.85938ZM627.625 371.85938L627.0 371.46875L631.1719 364.79688L631.78125 365.1875L627.625 371.85938Z" fill-rule="nonzero"/><path fill="#757575" d="M650.7502 372.5L649.67206 372.5L649.67206 365.28125L647.48456 366.07812L647.48456 365.09375L650.59393 363.92188L650.7502 363.92188L650.7502 372.5ZM659.78143 372.5L654.1877 372.5L654.1877 371.71875L657.1408 368.4375Q657.79706 367.6875 658.04706 367.23438Q658.29706 366.76562 658.29706 366.26562Q658.29706 365.59375 657.8908 365.17188Q657.5002 364.73438 656.8127 364.73438Q656.0158 364.73438 655.5627 365.20312Q655.10956 365.65625 655.10956 366.48438L654.03143 366.48438Q654.03143 365.29688 654.78143 364.57812Q655.54706 363.84375 656.8127 363.84375Q658.0158 363.84375 658.7033 364.46875Q659.3908 365.09375 659.3908 366.14062Q659.3908 367.39062 657.78143 369.14062L655.5002 371.60938L659.78143 371.60938L659.78143 372.5ZM661.2658 374.20312L660.65643 373.78125Q661.2033 373.01562 661.23456 372.1875L661.23456 371.21875L662.29706 371.21875L662.29706 372.0625Q662.29706 372.65625 662.0002 373.25Q661.7033 373.84375 661.2658 374.20312ZM664.7658 367.70312L665.5783 367.70312Q666.35956 367.6875 666.79706 367.29688Q667.23456 366.90625 667.23456 366.23438Q667.23456 364.73438 665.73456 364.73438Q665.03143 364.73438 664.60956 365.14062Q664.2033 365.54688 664.2033 366.20312L663.10956 366.20312Q663.10956 365.1875 663.84393 364.51562Q664.59393 363.84375 665.73456 363.84375Q666.9377 363.84375 667.6252 364.48438Q668.3127 365.125 668.3127 366.26562Q668.3127 366.82812 667.9533 367.34375Q667.59393 367.85938 666.96893 368.125Q667.67206 368.34375 668.04706 368.85938Q668.4377 369.375 668.4377 370.125Q668.4377 371.26562 667.6877 371.95312Q666.9377 372.625 665.73456 372.625Q664.54706 372.625 663.78143 371.96875Q663.03143 371.3125 663.03143 370.25L664.1252 370.25Q664.1252 370.92188 664.5627 371.32812Q665.0002 371.73438 665.7502 371.73438Q666.53143 371.73438 666.9377 371.32812Q667.35956 370.90625 667.35956 370.14062Q667.35956 369.40625 666.90643 369.01562Q666.4533 368.60938 665.5783 368.59375L664.7658 368.59375L664.7658 367.70312ZM675.54706 368.85938Q675.54706 370.76562 674.8908 371.70312Q674.2502 372.625 672.85956 372.625Q671.5002 372.625 670.84393 371.71875Q670.1877 370.8125 670.15643 369.0L670.15643 367.5625Q670.15643 365.67188 670.79706 364.76562Q671.4533 363.84375 672.84393 363.84375Q674.21893 363.84375 674.8752 364.73438Q675.53143 365.60938 675.54706 367.45312L675.54706 368.85938ZM674.4533 367.375Q674.4533 366.0 674.0627 365.375Q673.6877 364.73438 672.84393 364.73438Q672.0158 364.73438 671.6252 365.375Q671.2502 366.0 671.2502 367.29688L671.2502 369.03125Q671.2502 370.40625 671.6408 371.07812Q672.04706 371.73438 672.85956 371.73438Q673.65643 371.73438 674.04706 371.10938Q674.4377 370.48438 674.4533 369.15625L674.4533 367.375ZM682.5627 369.3125L679.7033 369.3125L679.7033 368.4375L682.5627 368.4375L682.5627 369.3125ZM689.7502 372.5L688.67206 372.5L688.67206 365.28125L686.48456 366.07812L686.48456 365.09375L689.59393 363.92188L689.7502 363.92188L689.7502 372.5ZM697.7658 369.64062L698.9533 369.64062L698.9533 370.51562L697.7658 370.51562L697.7658 372.5L696.6877 372.5L696.6877 370.51562L692.79706 370.51562L692.79706 369.875L696.60956 363.96875L697.7658 363.96875L697.7658 369.64062ZM694.03143 369.64062L696.6877 369.64062L696.6877 365.45312L696.54706 365.6875L694.03143 369.64062ZM700.2658 374.20312L699.65643 373.78125Q700.2033 373.01562 700.23456 372.1875L700.23456 371.21875L701.29706 371.21875L701.29706 372.0625Q701.29706 372.65625 701.0002 373.25Q700.7033 373.84375 700.2658 374.20312ZM703.7658 367.70312L704.5783 367.70312Q705.35956 367.6875 705.79706 367.29688Q706.23456 366.90625 706.23456 366.23438Q706.23456 364.73438 704.73456 364.73438Q704.03143 364.73438 703.60956 365.14062Q703.2033 365.54688 703.2033 366.20312L702.10956 366.20312Q702.10956 365.1875 702.84393 364.51562Q703.59393 363.84375 704.73456 363.84375Q705.9377 363.84375 706.6252 364.48438Q707.3127 365.125 707.3127 366.26562Q707.3127 366.82812 706.9533 367.34375Q706.59393 367.85938 705.96893 368.125Q706.67206 368.34375 707.04706 368.85938Q707.4377 369.375 707.4377 370.125Q707.4377 371.26562 706.6877 371.95312Q705.9377 372.625 704.73456 372.625Q703.54706 372.625 702.78143 371.96875Q702.03143 371.3125 702.03143 370.25L703.1252 370.25Q703.1252 370.92188 703.5627 371.32812Q704.0002 371.73438 704.7502 371.73438Q705.53143 371.73438 705.9377 371.32812Q706.35956 370.90625 706.35956 370.14062Q706.35956 369.40625 705.90643 369.01562Q705.4533 368.60938 704.5783 368.59375L703.7658 368.59375L703.7658 367.70312ZM713.7658 369.64062L714.9533 369.64062L714.9533 370.51562L713.7658 370.51562L713.7658 372.5L712.6877 372.5L712.6877 370.51562L708.79706 370.51562L708.79706 369.875L712.60956 363.96875L713.7658 363.96875L713.7658 369.64062ZM710.03143 369.64062L712.6877 369.64062L712.6877 365.45312L712.54706 365.6875L710.03143 369.64062ZM716.09393 365.60938Q716.09393 364.84375 716.5783 364.34375Q717.0783 363.84375 717.84393 363.84375Q718.6252 363.84375 719.10956 364.34375Q719.59393 364.84375 719.59393 365.64062L719.59393 366.0625Q719.59393 366.82812 719.09393 367.32812Q718.60956 367.8125 717.85956 367.8125Q717.09393 367.8125 716.59393 367.32812Q716.09393 366.82812 716.09393 366.01562L716.09393 365.60938ZM716.90643 366.0625Q716.90643 366.51562 717.15643 366.8125Q717.42206 367.10938 717.85956 367.10938Q718.28143 367.10938 718.53143 366.82812Q718.78143 366.53125 718.78143 366.03125L718.78143 365.60938Q718.78143 365.15625 718.53143 364.85938Q718.28143 364.54688 717.84393 364.54688Q717.40643 364.54688 717.15643 364.85938Q716.90643 365.15625 716.90643 365.625L716.90643 366.0625ZM720.2502 370.40625Q720.2502 369.64062 720.73456 369.15625Q721.23456 368.65625 722.0002 368.65625Q722.7658 368.65625 723.2502 369.15625Q723.7502 369.64062 723.7502 370.45312L723.7502 370.85938Q723.7502 371.625 723.2658 372.125Q722.78143 372.625 722.0158 372.625Q721.2502 372.625 720.7502 372.14062Q720.2502 371.64062 720.2502 370.82812L720.2502 370.40625ZM721.0627 370.85938Q721.0627 371.32812 721.3127 371.625Q721.5783 371.92188 722.0158 371.92188Q722.4377 371.92188 722.6877 371.64062Q722.9377 371.34375 722.9377 370.84375L722.9377 370.40625Q722.9377 369.9375 722.67206 369.65625Q722.42206 369.35938 722.0002 369.35938Q721.5783 369.35938 721.3127 369.65625Q721.0627 369.9375 721.0627 370.4375L721.0627 370.85938ZM718.10956 371.85938L717.48456 371.46875L721.65643 364.79688L722.2658 365.1875L718.10956 371.85938Z" fill-rule="nonzero"/><path fill="#757575" d="M741.2348 372.5L740.1567 372.5L740.1567 365.28125L737.9692 366.07812L737.9692 365.09375L741.07855 363.92188L741.2348 363.92188L741.2348 372.5ZM749.2504 369.64062L750.4379 369.64062L750.4379 370.51562L749.2504 370.51562L749.2504 372.5L748.1723 372.5L748.1723 370.51562L744.2817 370.51562L744.2817 369.875L748.0942 363.96875L749.2504 363.96875L749.2504 369.64062ZM745.51605 369.64062L748.1723 369.64062L748.1723 365.45312L748.0317 365.6875L745.51605 369.64062ZM751.7504 374.20312L751.14105 373.78125Q751.6879 373.01562 751.7192 372.1875L751.7192 371.21875L752.7817 371.21875L752.7817 372.0625Q752.7817 372.65625 752.4848 373.25Q752.1879 373.84375 751.7504 374.20312ZM755.2504 367.70312L756.0629 367.70312Q756.8442 367.6875 757.2817 367.29688Q757.7192 366.90625 757.7192 366.23438Q757.7192 364.73438 756.2192 364.73438Q755.51605 364.73438 755.0942 365.14062Q754.6879 365.54688 754.6879 366.20312L753.5942 366.20312Q753.5942 365.1875 754.32855 364.51562Q755.07855 363.84375 756.2192 363.84375Q757.4223 363.84375 758.1098 364.48438Q758.7973 365.125 758.7973 366.26562Q758.7973 366.82812 758.4379 367.34375Q758.07855 367.85938 757.45355 368.125Q758.1567 368.34375 758.5317 368.85938Q758.9223 369.375 758.9223 370.125Q758.9223 371.26562 758.1723 371.95312Q757.4223 372.625 756.2192 372.625Q755.0317 372.625 754.26605 371.96875Q753.51605 371.3125 753.51605 370.25L754.6098 370.25Q754.6098 370.92188 755.0473 371.32812Q755.4848 371.73438 756.2348 371.73438Q757.01605 371.73438 757.4223 371.32812Q757.8442 370.90625 757.8442 370.14062Q757.8442 369.40625 757.39105 369.01562Q756.9379 368.60938 756.0629 368.59375L755.2504 368.59375L755.2504 367.70312ZM765.2504 369.64062L766.4379 369.64062L766.4379 370.51562L765.2504 370.51562L765.2504 372.5L764.1723 372.5L764.1723 370.51562L760.2817 370.51562L760.2817 369.875L764.0942 363.96875L765.2504 363.96875L765.2504 369.64062ZM761.51605 369.64062L764.1723 369.64062L764.1723 365.45312L764.0317 365.6875L761.51605 369.64062ZM773.0473 369.3125L770.1879 369.3125L770.1879 368.4375L773.0473 368.4375L773.0473 369.3125ZM780.2348 372.5L779.1567 372.5L779.1567 365.28125L776.9692 366.07812L776.9692 365.09375L780.07855 363.92188L780.2348 363.92188L780.2348 372.5ZM787.9379 363.96875L787.9379 364.875L787.7348 364.875Q786.4692 364.90625 785.7192 365.64062Q784.9692 366.35938 784.8442 367.67188Q785.5317 366.90625 786.6879 366.90625Q787.7973 366.90625 788.4692 367.6875Q789.14105 368.46875 789.14105 369.71875Q789.14105 371.03125 788.4223 371.82812Q787.70355 372.625 786.4848 372.625Q785.26605 372.625 784.5004 371.6875Q783.7504 370.73438 783.7504 369.25L783.7504 368.84375Q783.7504 366.48438 784.7504 365.23438Q785.7504 363.98438 787.7348 363.96875L787.9379 363.96875ZM786.51605 367.8125Q785.95355 367.8125 785.4848 368.14062Q785.01605 368.46875 784.82855 368.98438L784.82855 369.375Q784.82855 370.4375 785.2973 371.07812Q785.7817 371.71875 786.4848 371.71875Q787.2192 371.71875 787.64105 371.1875Q788.0629 370.64062 788.0629 369.76562Q788.0629 368.89062 787.64105 368.35938Q787.2192 367.8125 786.51605 367.8125ZM790.7504 374.20312L790.14105 373.78125Q790.6879 373.01562 790.7192 372.1875L790.7192 371.21875L791.7817 371.21875L791.7817 372.0625Q791.7817 372.65625 791.4848 373.25Q791.1879 373.84375 790.7504 374.20312ZM797.2504 369.64062L798.4379 369.64062L798.4379 370.51562L797.2504 370.51562L797.2504 372.5L796.1723 372.5L796.1723 370.51562L792.2817 370.51562L792.2817 369.875L796.0942 363.96875L797.2504 363.96875L797.2504 369.64062ZM793.51605 369.64062L796.1723 369.64062L796.1723 365.45312L796.0317 365.6875L793.51605 369.64062ZM805.0317 368.85938Q805.0317 370.76562 804.3754 371.70312Q803.7348 372.625 802.3442 372.625Q800.9848 372.625 800.32855 371.71875Q799.6723 370.8125 799.64105 369.0L799.64105 367.5625Q799.64105 365.67188 800.2817 364.76562Q800.9379 363.84375 802.32855 363.84375Q803.70355 363.84375 804.3598 364.73438Q805.01605 365.60938 805.0317 367.45312L805.0317 368.85938ZM803.9379 367.375Q803.9379 366.0 803.5473 365.375Q803.1723 364.73438 802.32855 364.73438Q801.5004 364.73438 801.1098 365.375Q800.7348 366.0 800.7348 367.29688L800.7348 369.03125Q800.7348 370.40625 801.1254 371.07812Q801.5317 371.73438 802.3442 371.73438Q803.14105 371.73438 803.5317 371.10938Q803.9223 370.48438 803.9379 369.15625L803.9379 367.375ZM806.57855 365.60938Q806.57855 364.84375 807.0629 364.34375Q807.5629 363.84375 808.32855 363.84375Q809.1098 363.84375 809.5942 364.34375Q810.07855 364.84375 810.07855 365.64062L810.07855 366.0625Q810.07855 366.82812 809.57855 367.32812Q809.0942 367.8125 808.3442 367.8125Q807.57855 367.8125 807.07855 367.32812Q806.57855 366.82812 806.57855 366.01562L806.57855 365.60938ZM807.39105 366.0625Q807.39105 366.51562 807.64105 366.8125Q807.9067 367.10938 808.3442 367.10938Q808.76605 367.10938 809.01605 366.82812Q809.26605 366.53125 809.26605 366.03125L809.26605 365.60938Q809.26605 365.15625 809.01605 364.85938Q808.76605 364.54688 808.32855 364.54688Q807.89105 364.54688 807.64105 364.85938Q807.39105 365.15625 807.39105 365.625L807.39105 366.0625ZM810.7348 370.40625Q810.7348 369.64062 811.2192 369.15625Q811.7192 368.65625 812.4848 368.65625Q813.2504 368.65625 813.7348 369.15625Q814.2348 369.64062 814.2348 370.45312L814.2348 370.85938Q814.2348 371.625 813.7504 372.125Q813.26605 372.625 812.5004 372.625Q811.7348 372.625 811.2348 372.14062Q810.7348 371.64062 810.7348 370.82812L810.7348 370.40625ZM811.5473 370.85938Q811.5473 371.32812 811.7973 371.625Q812.0629 371.92188 812.5004 371.92188Q812.9223 371.92188 813.1723 371.64062Q813.4223 371.34375 813.4223 370.84375L813.4223 370.40625Q813.4223 369.9375 813.1567 369.65625Q812.9067 369.35938 812.4848 369.35938Q812.0629 369.35938 811.7973 369.65625Q811.5473 369.9375 811.5473 370.4375L811.5473 370.85938ZM808.5942 371.85938L807.9692 371.46875L812.14105 364.79688L812.7504 365.1875L808.5942 371.85938Z" fill-rule="nonzero"/><path fill="#757575" d="M831.71936 372.5L830.64124 372.5L830.64124 365.28125L828.45374 366.07812L828.45374 365.09375L831.5631 363.92188L831.71936 363.92188L831.71936 372.5ZM839.4225 363.96875L839.4225 364.875L839.21936 364.875Q837.95374 364.90625 837.20374 365.64062Q836.45374 366.35938 836.32874 367.67188Q837.01624 366.90625 838.1725 366.90625Q839.28186 366.90625 839.95374 367.6875Q840.6256 368.46875 840.6256 369.71875Q840.6256 371.03125 839.90686 371.82812Q839.1881 372.625 837.96936 372.625Q836.7506 372.625 835.985 371.6875Q835.235 370.73438 835.235 369.25L835.235 368.84375Q835.235 366.48438 836.235 365.23438Q837.235 363.98438 839.21936 363.96875L839.4225 363.96875ZM838.0006 367.8125Q837.4381 367.8125 836.96936 368.14062Q836.5006 368.46875 836.3131 368.98438L836.3131 369.375Q836.3131 370.4375 836.78186 371.07812Q837.26624 371.71875 837.96936 371.71875Q838.70374 371.71875 839.1256 371.1875Q839.5475 370.64062 839.5475 369.76562Q839.5475 368.89062 839.1256 368.35938Q838.70374 367.8125 838.0006 367.8125ZM842.235 374.20312L841.6256 373.78125Q842.1725 373.01562 842.20374 372.1875L842.20374 371.21875L843.26624 371.21875L843.26624 372.0625Q843.26624 372.65625 842.96936 373.25Q842.6725 373.84375 842.235 374.20312ZM848.735 369.64062L849.9225 369.64062L849.9225 370.51562L848.735 370.51562L848.735 372.5L847.65686 372.5L847.65686 370.51562L843.76624 370.51562L843.76624 369.875L847.57874 363.96875L848.735 363.96875L848.735 369.64062ZM845.0006 369.64062L847.65686 369.64062L847.65686 365.45312L847.51624 365.6875L845.0006 369.64062ZM856.51624 368.85938Q856.51624 370.76562 855.86 371.70312Q855.21936 372.625 853.82874 372.625Q852.46936 372.625 851.8131 371.71875Q851.15686 370.8125 851.1256 369.0L851.1256 367.5625Q851.1256 365.67188 851.76624 364.76562Q852.4225 363.84375 853.8131 363.84375Q855.1881 363.84375 855.84436 364.73438Q856.5006 365.60938 856.51624 367.45312L856.51624 368.85938ZM855.4225 367.375Q855.4225 366.0 855.03186 365.375Q854.65686 364.73438 853.8131 364.73438Q852.985 364.73438 852.59436 365.375Q852.21936 366.0 852.21936 367.29688L852.21936 369.03125Q852.21936 370.40625 852.61 371.07812Q853.01624 371.73438 853.82874 371.73438Q854.6256 371.73438 855.01624 371.10938Q855.40686 370.48438 855.4225 369.15625L855.4225 367.375ZM863.53186 369.3125L860.6725 369.3125L860.6725 368.4375L863.53186 368.4375L863.53186 369.3125ZM870.71936 372.5L869.64124 372.5L869.64124 365.28125L867.45374 366.07812L867.45374 365.09375L870.5631 363.92188L870.71936 363.92188L870.71936 372.5ZM879.34436 366.1875Q879.34436 366.82812 879.0006 367.32812Q878.65686 367.82812 878.09436 368.10938Q878.7506 368.39062 879.14124 368.95312Q879.53186 369.5 879.53186 370.20312Q879.53186 371.29688 878.78186 371.96875Q878.0475 372.625 876.82874 372.625Q875.59436 372.625 874.84436 371.96875Q874.11 371.29688 874.11 370.20312Q874.11 369.5 874.485 368.95312Q874.86 368.39062 875.53186 368.10938Q874.96936 367.82812 874.64124 367.32812Q874.3131 366.82812 874.3131 366.1875Q874.3131 365.10938 875.0006 364.48438Q875.6881 363.84375 876.82874 363.84375Q877.95374 363.84375 878.64124 364.48438Q879.34436 365.10938 879.34436 366.1875ZM878.45374 370.17188Q878.45374 369.45312 878.0006 369.01562Q877.5475 368.5625 876.8131 368.5625Q876.07874 368.5625 875.6256 369.01562Q875.1881 369.45312 875.1881 370.1875Q875.1881 370.90625 875.6256 371.32812Q876.0631 371.73438 876.82874 371.73438Q877.57874 371.73438 878.01624 371.3125Q878.45374 370.89062 878.45374 370.17188ZM876.82874 364.73438Q876.1881 364.73438 875.78186 365.14062Q875.39124 365.53125 875.39124 366.21875Q875.39124 366.85938 875.78186 367.26562Q876.1725 367.67188 876.8131 367.67188Q877.46936 367.67188 877.86 367.26562Q878.2506 366.85938 878.2506 366.21875Q878.2506 365.5625 877.84436 365.15625Q877.4381 364.73438 876.82874 364.73438ZM881.235 374.20312L880.6256 373.78125Q881.1725 373.01562 881.20374 372.1875L881.20374 371.21875L882.26624 371.21875L882.26624 372.0625Q882.26624 372.65625 881.96936 373.25Q881.6725 373.84375 881.235 374.20312ZM887.735 369.64062L888.9225 369.64062L888.9225 370.51562L887.735 370.51562L887.735 372.5L886.65686 372.5L886.65686 370.51562L882.76624 370.51562L882.76624 369.875L886.57874 363.96875L887.735 363.96875L887.735 369.64062ZM884.0006 369.64062L886.65686 369.64062L886.65686 365.45312L886.51624 365.6875L884.0006 369.64062ZM890.65686 368.21875L891.09436 363.96875L895.46936 363.96875L895.46936 364.96875L892.01624 364.96875L891.7506 367.29688Q892.39124 366.92188 893.1881 366.92188Q894.34436 366.92188 895.03186 367.70312Q895.71936 368.46875 895.71936 369.78125Q895.71936 371.09375 895.0006 371.85938Q894.2975 372.625 893.01624 372.625Q891.89124 372.625 891.1725 372.0Q890.45374 371.35938 890.36 370.25L891.3756 370.25Q891.485 370.98438 891.90686 371.35938Q892.32874 371.73438 893.01624 371.73438Q893.76624 371.73438 894.20374 371.21875Q894.64124 370.70312 894.64124 369.79688Q894.64124 368.9375 894.1725 368.42188Q893.70374 367.90625 892.9225 367.90625Q892.21936 367.90625 891.8131 368.20312L891.53186 368.4375L890.65686 368.21875ZM897.0631 365.60938Q897.0631 364.84375 897.5475 364.34375Q898.0475 363.84375 898.8131 363.84375Q899.59436 363.84375 900.07874 364.34375Q900.5631 364.84375 900.5631 365.64062L900.5631 366.0625Q900.5631 366.82812 900.0631 367.32812Q899.57874 367.8125 898.82874 367.8125Q898.0631 367.8125 897.5631 367.32812Q897.0631 366.82812 897.0631 366.01562L897.0631 365.60938ZM897.8756 366.0625Q897.8756 366.51562 898.1256 366.8125Q898.39124 367.10938 898.82874 367.10938Q899.2506 367.10938 899.5006 366.82812Q899.7506 366.53125 899.7506 366.03125L899.7506 365.60938Q899.7506 365.15625 899.5006 364.85938Q899.2506 364.54688 898.8131 364.54688Q898.3756 364.54688 898.1256 364.85938Q897.8756 365.15625 897.8756 365.625L897.8756 366.0625ZM901.21936 370.40625Q901.21936 369.64062 901.70374 369.15625Q902.20374 368.65625 902.96936 368.65625Q903.735 368.65625 904.21936 369.15625Q904.71936 369.64062 904.71936 370.45312L904.71936 370.85938Q904.71936 371.625 904.235 372.125Q903.7506 372.625 902.985 372.625Q902.21936 372.625 901.71936 372.14062Q901.21936 371.64062 901.21936 370.82812L901.21936 370.40625ZM902.03186 370.85938Q902.03186 371.32812 902.28186 371.625Q902.5475 371.92188 902.985 371.92188Q903.40686 371.92188 903.65686 371.64062Q903.90686 371.34375 903.90686 370.84375L903.90686 370.40625Q903.90686 369.9375 903.64124 369.65625Q903.39124 369.35938 902.96936 369.35938Q902.5475 369.35938 902.28186 369.65625Q902.03186 369.9375 902.03186 370.4375L902.03186 370.85938ZM899.07874 371.85938L898.45374 371.46875L902.6256 364.79688L903.235 365.1875L899.07874 371.85938Z" fill-rule="nonzero"/><path fill="#757575" d="M922.204 372.5L921.12585 372.5L921.12585 365.28125L918.93835 366.07812L918.93835 365.09375L922.0477 363.92188L922.204 363.92188L922.204 372.5ZM930.829 366.1875Q930.829 366.82812 930.4852 367.32812Q930.1415 367.82812 929.579 368.10938Q930.2352 368.39062 930.62585 368.95312Q931.0165 369.5 931.0165 370.20312Q931.0165 371.29688 930.2665 371.96875Q929.5321 372.625 928.31335 372.625Q927.079 372.625 926.329 371.96875Q925.5946 371.29688 925.5946 370.20312Q925.5946 369.5 925.9696 368.95312Q926.3446 368.39062 927.0165 368.10938Q926.454 367.82812 926.12585 367.32812Q925.7977 366.82812 925.7977 366.1875Q925.7977 365.10938 926.4852 364.48438Q927.1727 363.84375 928.31335 363.84375Q929.43835 363.84375 930.12585 364.48438Q930.829 365.10938 930.829 366.1875ZM929.93835 370.17188Q929.93835 369.45312 929.4852 369.01562Q929.0321 368.5625 928.2977 368.5625Q927.56335 368.5625 927.1102 369.01562Q926.6727 369.45312 926.6727 370.1875Q926.6727 370.90625 927.1102 371.32812Q927.5477 371.73438 928.31335 371.73438Q929.06335 371.73438 929.50085 371.3125Q929.93835 370.89062 929.93835 370.17188ZM928.31335 364.73438Q927.6727 364.73438 927.2665 365.14062Q926.87585 365.53125 926.87585 366.21875Q926.87585 366.85938 927.2665 367.26562Q927.6571 367.67188 928.2977 367.67188Q928.954 367.67188 929.3446 367.26562Q929.7352 366.85938 929.7352 366.21875Q929.7352 365.5625 929.329 365.15625Q928.9227 364.73438 928.31335 364.73438ZM932.7196 374.20312L932.1102 373.78125Q932.6571 373.01562 932.68835 372.1875L932.68835 371.21875L933.75085 371.21875L933.75085 372.0625Q933.75085 372.65625 933.454 373.25Q933.1571 373.84375 932.7196 374.20312ZM939.2196 369.64062L940.4071 369.64062L940.4071 370.51562L939.2196 370.51562L939.2196 372.5L938.1415 372.5L938.1415 370.51562L934.25085 370.51562L934.25085 369.875L938.06335 363.96875L939.2196 363.96875L939.2196 369.64062ZM935.4852 369.64062L938.1415 369.64062L938.1415 365.45312L938.00085 365.6875L935.4852 369.64062ZM942.1415 368.21875L942.579 363.96875L946.954 363.96875L946.954 364.96875L943.50085 364.96875L943.2352 367.29688Q943.87585 366.92188 944.6727 366.92188Q945.829 366.92188 946.5165 367.70312Q947.204 368.46875 947.204 369.78125Q947.204 371.09375 946.4852 371.85938Q945.7821 372.625 944.50085 372.625Q943.37585 372.625 942.6571 372.0Q941.93835 371.35938 941.8446 370.25L942.8602 370.25Q942.9696 370.98438 943.3915 371.35938Q943.81335 371.73438 944.50085 371.73438Q945.25085 371.73438 945.68835 371.21875Q946.12585 370.70312 946.12585 369.79688Q946.12585 368.9375 945.6571 368.42188Q945.18835 367.90625 944.4071 367.90625Q943.704 367.90625 943.2977 368.20312L943.0165 368.4375L942.1415 368.21875ZM954.0165 369.3125L951.1571 369.3125L951.1571 368.4375L954.0165 368.4375L954.0165 369.3125ZM963.2352 372.5L957.6415 372.5L957.6415 371.71875L960.5946 368.4375Q961.25085 367.6875 961.50085 367.23438Q961.75085 366.76562 961.75085 366.26562Q961.75085 365.59375 961.3446 365.17188Q960.954 364.73438 960.2665 364.73438Q959.4696 364.73438 959.0165 365.20312Q958.56335 365.65625 958.56335 366.48438L957.4852 366.48438Q957.4852 365.29688 958.2352 364.57812Q959.00085 363.84375 960.2665 363.84375Q961.4696 363.84375 962.1571 364.46875Q962.8446 365.09375 962.8446 366.14062Q962.8446 367.39062 961.2352 369.14062L958.954 371.60938L963.2352 371.60938L963.2352 372.5ZM970.00085 368.85938Q970.00085 370.76562 969.3446 371.70312Q968.704 372.625 967.31335 372.625Q965.954 372.625 965.2977 371.71875Q964.6415 370.8125 964.6102 369.0L964.6102 367.5625Q964.6102 365.67188 965.25085 364.76562Q965.9071 363.84375 967.2977 363.84375Q968.6727 363.84375 969.329 364.73438Q969.9852 365.60938 970.00085 367.45312L970.00085 368.85938ZM968.9071 367.375Q968.9071 366.0 968.5165 365.375Q968.1415 364.73438 967.2977 364.73438Q966.4696 364.73438 966.079 365.375Q965.704 366.0 965.704 367.29688L965.704 369.03125Q965.704 370.40625 966.0946 371.07812Q966.50085 371.73438 967.31335 371.73438Q968.1102 371.73438 968.50085 371.10938Q968.8915 370.48438 968.9071 369.15625L968.9071 367.375ZM971.7196 374.20312L971.1102 373.78125Q971.6571 373.01562 971.68835 372.1875L971.68835 371.21875L972.75085 371.21875L972.75085 372.0625Q972.75085 372.65625 972.454 373.25Q972.1571 373.84375 971.7196 374.20312ZM974.1415 368.21875L974.579 363.96875L978.954 363.96875L978.954 364.96875L975.50085 364.96875L975.2352 367.29688Q975.87585 366.92188 976.6727 366.92188Q977.829 366.92188 978.5165 367.70312Q979.204 368.46875 979.204 369.78125Q979.204 371.09375 978.4852 371.85938Q977.7821 372.625 976.50085 372.625Q975.37585 372.625 974.6571 372.0Q973.93835 371.35938 973.8446 370.25L974.8602 370.25Q974.9696 370.98438 975.3915 371.35938Q975.81335 371.73438 976.50085 371.73438Q977.25085 371.73438 977.68835 371.21875Q978.12585 370.70312 978.12585 369.79688Q978.12585 368.9375 977.6571 368.42188Q977.18835 367.90625 976.4071 367.90625Q975.704 367.90625 975.2977 368.20312L975.0165 368.4375L974.1415 368.21875ZM986.00085 368.85938Q986.00085 370.76562 985.3446 371.70312Q984.704 372.625 983.31335 372.625Q981.954 372.625 981.2977 371.71875Q980.6415 370.8125 980.6102 369.0L980.6102 367.5625Q980.6102 365.67188 981.25085 364.76562Q981.9071 363.84375 983.2977 363.84375Q984.6727 363.84375 985.329 364.73438Q985.9852 365.60938 986.00085 367.45312L986.00085 368.85938ZM984.9071 367.375Q984.9071 366.0 984.5165 365.375Q984.1415 364.73438 983.2977 364.73438Q982.4696 364.73438 982.079 365.375Q981.704 366.0 981.704 367.29688L981.704 369.03125Q981.704 370.40625 982.0946 371.07812Q982.50085 371.73438 983.31335 371.73438Q984.1102 371.73438 984.50085 371.10938Q984.8915 370.48438 984.9071 369.15625L984.9071 367.375ZM987.5477 365.60938Q987.5477 364.84375 988.0321 364.34375Q988.5321 363.84375 989.2977 363.84375Q990.079 363.84375 990.56335 364.34375Q991.0477 364.84375 991.0477 365.64062L991.0477 366.0625Q991.0477 366.82812 990.5477 367.32812Q990.06335 367.8125 989.31335 367.8125Q988.5477 367.8125 988.0477 367.32812Q987.5477 366.82812 987.5477 366.01562L987.5477 365.60938ZM988.3602 366.0625Q988.3602 366.51562 988.6102 366.8125Q988.87585 367.10938 989.31335 367.10938Q989.7352 367.10938 989.9852 366.82812Q990.2352 366.53125 990.2352 366.03125L990.2352 365.60938Q990.2352 365.15625 989.9852 364.85938Q989.7352 364.54688 989.2977 364.54688Q988.8602 364.54688 988.6102 364.85938Q988.3602 365.15625 988.3602 365.625L988.3602 366.0625ZM991.704 370.40625Q991.704 369.64062 992.18835 369.15625Q992.68835 368.65625 993.454 368.65625Q994.2196 368.65625 994.704 369.15625Q995.204 369.64062 995.204 370.45312L995.204 370.85938Q995.204 371.625 994.7196 372.125Q994.2352 372.625 993.4696 372.625Q992.704 372.625 992.204 372.14062Q991.704 371.64062 991.704 370.82812L991.704 370.40625ZM992.5165 370.85938Q992.5165 371.32812 992.7665 371.625Q993.0321 371.92188 993.4696 371.92188Q993.8915 371.92188 994.1415 371.64062Q994.3915 371.34375 994.3915 370.84375L994.3915 370.40625Q994.3915 369.9375 994.12585 369.65625Q993.87585 369.35938 993.454 369.35938Q993.0321 369.35938 992.7665 369.65625Q992.5165 369.9375 992.5165 370.4375L992.5165 370.85938ZM989.56335 371.85938L988.93835 371.46875L993.1102 364.79688L993.7196 365.1875L989.56335 371.85938Z" fill-rule="nonzero"/><path fill="#757575" d="M1014.7198 372.5L1009.12604 372.5L1009.12604 371.71875L1012.07916 368.4375Q1012.7354 367.6875 1012.9854 367.23438Q1013.2354 366.76562 1013.2354 366.26562Q1013.2354 365.59375 1012.82916 365.17188Q1012.43854 364.73438 1011.75104 364.73438Q1010.95416 364.73438 1010.50104 365.20312Q1010.0479 365.65625 1010.0479 366.48438L1008.9698 366.48438Q1008.9698 365.29688 1009.7198 364.57812Q1010.4854 363.84375 1011.75104 363.84375Q1012.95416 363.84375 1013.64166 364.46875Q1014.32916 365.09375 1014.32916 366.14062Q1014.32916 367.39062 1012.7198 369.14062L1010.43854 371.60938L1014.7198 371.60938L1014.7198 372.5ZM1021.4854 368.85938Q1021.4854 370.76562 1020.82916 371.70312Q1020.18854 372.625 1018.7979 372.625Q1017.43854 372.625 1016.7823 371.71875Q1016.12604 370.8125 1016.0948 369.0L1016.0948 367.5625Q1016.0948 365.67188 1016.7354 364.76562Q1017.39166 363.84375 1018.7823 363.84375Q1020.1573 363.84375 1020.81354 364.73438Q1021.4698 365.60938 1021.4854 367.45312L1021.4854 368.85938ZM1020.39166 367.375Q1020.39166 366.0 1020.00104 365.375Q1019.62604 364.73438 1018.7823 364.73438Q1017.95416 364.73438 1017.56354 365.375Q1017.18854 366.0 1017.18854 367.29688L1017.18854 369.03125Q1017.18854 370.40625 1017.57916 371.07812Q1017.9854 371.73438 1018.7979 371.73438Q1019.5948 371.73438 1019.9854 371.10938Q1020.37604 370.48438 1020.39166 369.15625L1020.39166 367.375ZM1023.20416 374.20312L1022.5948 373.78125Q1023.14166 373.01562 1023.1729 372.1875L1023.1729 371.21875L1024.2354 371.21875L1024.2354 372.0625Q1024.2354 372.65625 1023.93854 373.25Q1023.64166 373.84375 1023.20416 374.20312ZM1025.626 368.21875L1026.0635 363.96875L1030.4385 363.96875L1030.4385 364.96875L1026.9854 364.96875L1026.7197 367.29688Q1027.3604 366.92188 1028.1572 366.92188Q1029.3135 366.92188 1030.001 367.70312Q1030.6885 368.46875 1030.6885 369.78125Q1030.6885 371.09375 1029.9697 371.85938Q1029.2666 372.625 1027.9854 372.625Q1026.8604 372.625 1026.1416 372.0Q1025.4229 371.35938 1025.3291 370.25L1026.3447 370.25Q1026.4541 370.98438 1026.876 371.35938Q1027.2979 371.73438 1027.9854 371.73438Q1028.7354 371.73438 1029.1729 371.21875Q1029.6104 370.70312 1029.6104 369.79688Q1029.6104 368.9375 1029.1416 368.42188Q1028.6729 367.90625 1027.8916 367.90625Q1027.1885 367.90625 1026.7822 368.20312L1026.501 368.4375L1025.626 368.21875ZM1037.4854 368.85938Q1037.4854 370.76562 1036.8291 371.70312Q1036.1885 372.625 1034.7979 372.625Q1033.4385 372.625 1032.7822 371.71875Q1032.126 370.8125 1032.0947 369.0L1032.0947 367.5625Q1032.0947 365.67188 1032.7354 364.76562Q1033.3916 363.84375 1034.7822 363.84375Q1036.1572 363.84375 1036.8135 364.73438Q1037.4697 365.60938 1037.4854 367.45312L1037.4854 368.85938ZM1036.3916 367.375Q1036.3916 366.0 1036.001 365.375Q1035.626 364.73438 1034.7822 364.73438Q1033.9541 364.73438 1033.5635 365.375Q1033.1885 366.0 1033.1885 367.29688L1033.1885 369.03125Q1033.1885 370.40625 1033.5791 371.07812Q1033.9854 371.73438 1034.7979 371.73438Q1035.5947 371.73438 1035.9854 371.10938Q1036.376 370.48438 1036.3916 369.15625L1036.3916 367.375ZM1044.501 369.3125L1041.6416 369.3125L1041.6416 368.4375L1044.501 368.4375L1044.501 369.3125ZM1053.7197 372.5L1048.126 372.5L1048.126 371.71875L1051.0791 368.4375Q1051.7354 367.6875 1051.9854 367.23438Q1052.2354 366.76562 1052.2354 366.26562Q1052.2354 365.59375 1051.8291 365.17188Q1051.4385 364.73438 1050.751 364.73438Q1049.9541 364.73438 1049.501 365.20312Q1049.0479 365.65625 1049.0479 366.48438L1047.9697 366.48438Q1047.9697 365.29688 1048.7197 364.57812Q1049.4854 363.84375 1050.751 363.84375Q1051.9541 363.84375 1052.6416 364.46875Q1053.3291 365.09375 1053.3291 366.14062Q1053.3291 367.39062 1051.7197 369.14062L1049.4385 371.60938L1053.7197 371.60938L1053.7197 372.5ZM1060.7197 372.5L1055.126 372.5L1055.126 371.71875L1058.0791 368.4375Q1058.7354 367.6875 1058.9854 367.23438Q1059.2354 366.76562 1059.2354 366.26562Q1059.2354 365.59375 1058.8291 365.17188Q1058.4385 364.73438 1057.751 364.73438Q1056.9541 364.73438 1056.501 365.20312Q1056.0479 365.65625 1056.0479 366.48438L1054.9697 366.48438Q1054.9697 365.29688 1055.7197 364.57812Q1056.4854 363.84375 1057.751 363.84375Q1058.9541 363.84375 1059.6416 364.46875Q1060.3291 365.09375 1060.3291 366.14062Q1060.3291 367.39062 1058.7197 369.14062L1056.4385 371.60938L1060.7197 371.60938L1060.7197 372.5ZM1062.2041 374.20312L1061.5947 373.78125Q1062.1416 373.01562 1062.1729 372.1875L1062.1729 371.21875L1063.2354 371.21875L1063.2354 372.0625Q1063.2354 372.65625 1062.9385 373.25Q1062.6416 373.84375 1062.2041 374.20312ZM1064.626 368.21875L1065.0635 363.96875L1069.4385 363.96875L1069.4385 364.96875L1065.9854 364.96875L1065.7197 367.29688Q1066.3604 366.92188 1067.1572 366.92188Q1068.3135 366.92188 1069.001 367.70312Q1069.6885 368.46875 1069.6885 369.78125Q1069.6885 371.09375 1068.9697 371.85938Q1068.2666 372.625 1066.9854 372.625Q1065.8604 372.625 1065.1416 372.0Q1064.4229 371.35938 1064.3291 370.25L1065.3447 370.25Q1065.4541 370.98438 1065.876 371.35938Q1066.2979 371.73438 1066.9854 371.73438Q1067.7354 371.73438 1068.1729 371.21875Q1068.6104 370.70312 1068.6104 369.79688Q1068.6104 368.9375 1068.1416 368.42188Q1067.6729 367.90625 1066.8916 367.90625Q1066.1885 367.90625 1065.7822 368.20312L1065.501 368.4375L1064.626 368.21875ZM1071.626 368.21875L1072.0635 363.96875L1076.4385 363.96875L1076.4385 364.96875L1072.9854 364.96875L1072.7197 367.29688Q1073.3604 366.92188 1074.1572 366.92188Q1075.3135 366.92188 1076.001 367.70312Q1076.6885 368.46875 1076.6885 369.78125Q1076.6885 371.09375 1075.9697 371.85938Q1075.2666 372.625 1073.9854 372.625Q1072.8604 372.625 1072.1416 372.0Q1071.4229 371.35938 1071.3291 370.25L1072.3447 370.25Q1072.4541 370.98438 1072.876 371.35938Q1073.2979 371.73438 1073.9854 371.73438Q1074.7354 371.73438 1075.1729 371.21875Q1075.6104 370.70312 1075.6104 369.79688Q1075.6104 368.9375 1075.1416 368.42188Q1074.6729 367.90625 1073.8916 367.90625Q1073.1885 367.90625 1072.7822 368.20312L1072.501 368.4375L1071.626 368.21875ZM1078.0322 365.60938Q1078.0322 364.84375 1078.5166 364.34375Q1079.0166 363.84375 1079.7822 363.84375Q1080.5635 363.84375 1081.0479 364.34375Q1081.5322 364.84375 1081.5322 365.64062L1081.5322 366.0625Q1081.5322 366.82812 1081.0322 367.32812Q1080.5479 367.8125 1079.7979 367.8125Q1079.0322 367.8125 1078.5322 367.32812Q1078.0322 366.82812 1078.0322 366.01562L1078.0322 365.60938ZM1078.8447 366.0625Q1078.8447 366.51562 1079.0947 366.8125Q1079.3604 367.10938 1079.7979 367.10938Q1080.2197 367.10938 1080.4697 366.82812Q1080.7197 366.53125 1080.7197 366.03125L1080.7197 365.60938Q1080.7197 365.15625 1080.4697 364.85938Q1080.2197 364.54688 1079.7822 364.54688Q1079.3447 364.54688 1079.0947 364.85938Q1078.8447 365.15625 1078.8447 365.625L1078.8447 366.0625ZM1082.1885 370.40625Q1082.1885 369.64062 1082.6729 369.15625Q1083.1729 368.65625 1083.9385 368.65625Q1084.7041 368.65625 1085.1885 369.15625Q1085.6885 369.64062 1085.6885 370.45312L1085.6885 370.85938Q1085.6885 371.625 1085.2041 372.125Q1084.7197 372.625 1083.9541 372.625Q1083.1885 372.625 1082.6885 372.14062Q1082.1885 371.64062 1082.1885 370.82812L1082.1885 370.40625ZM1083.001 370.85938Q1083.001 371.32812 1083.251 371.625Q1083.5166 371.92188 1083.9541 371.92188Q1084.376 371.92188 1084.626 371.64062Q1084.876 371.34375 1084.876 370.84375L1084.876 370.40625Q1084.876 369.9375 1084.6104 369.65625Q1084.3604 369.35938 1083.9385 369.35938Q1083.5166 369.35938 1083.251 369.65625Q1083.001 369.9375 1083.001 370.4375L1083.001 370.85938ZM1080.0479 371.85938L1079.4229 371.46875L1083.5947 364.79688L1084.2041 365.1875L1080.0479 371.85938Z" fill-rule="nonzero"/><path fill="#757575" d="M27.859375 38.015625L31.921875 26.28125L33.96875 26.28125L28.703125 40.5L27.03125 40.5L21.78125 26.28125L23.8125 26.28125L27.859375 38.015625ZM40.25 40.703125Q38.109375 40.703125 36.75 39.296875Q35.40625 37.875 35.40625 35.515625L35.40625 35.171875Q35.40625 33.609375 36.0 32.375Q36.609375 31.140625 37.6875 30.4375Q38.765625 29.734375 40.03125 29.734375Q42.09375 29.734375 43.234375 31.09375Q44.375 32.453125 44.375 34.984375L44.375 35.734375L37.21875 35.734375Q37.25 37.296875 38.125 38.265625Q39.0 39.21875 40.34375 39.21875Q41.3125 39.21875 41.96875 38.828125Q42.640625 38.4375 43.140625 37.796875L44.234375 38.65625Q42.90625 40.703125 40.25 40.703125ZM40.03125 31.21875Q38.9375 31.21875 38.1875 32.015625Q37.453125 32.8125 37.28125 34.25L42.5625 34.25L42.5625 34.109375Q42.484375 32.734375 41.8125 31.984375Q41.15625 31.21875 40.03125 31.21875ZM48.828125 40.5L47.03125 40.5L47.03125 25.5L48.828125 25.5L48.828125 40.5ZM51.390625 35.125Q51.390625 33.5625 52.0 32.328125Q52.609375 31.078125 53.6875 30.40625Q54.78125 29.734375 56.1875 29.734375Q58.34375 29.734375 59.671875 31.234375Q61.015625 32.71875 61.015625 35.203125L61.015625 35.328125Q61.015625 36.875 60.421875 38.109375Q59.828125 39.328125 58.71875 40.015625Q57.625 40.703125 56.203125 40.703125Q54.0625 40.703125 52.71875 39.203125Q51.390625 37.703125 51.390625 35.25L51.390625 35.125ZM53.203125 35.328125Q53.203125 37.09375 54.015625 38.15625Q54.84375 39.21875 56.203125 39.21875Q57.578125 39.21875 58.390625 38.140625Q59.203125 37.0625 59.203125 35.125Q59.203125 33.375 58.375 32.296875Q57.546875 31.21875 56.1875 31.21875Q54.84375 31.21875 54.015625 32.28125Q53.203125 33.34375 53.203125 35.328125ZM67.109375 39.21875Q68.078125 39.21875 68.796875 38.640625Q69.515625 38.046875 69.59375 37.171875L71.3125 37.171875Q71.25 38.078125 70.671875 38.90625Q70.109375 39.71875 69.140625 40.21875Q68.1875 40.703125 67.109375 40.703125Q64.953125 40.703125 63.671875 39.265625Q62.40625 37.8125 62.40625 35.3125L62.40625 35.015625Q62.40625 33.46875 62.96875 32.265625Q63.53125 31.0625 64.59375 30.40625Q65.65625 29.734375 67.09375 29.734375Q68.875 29.734375 70.046875 30.796875Q71.234375 31.859375 71.3125 33.5625L69.59375 33.5625Q69.515625 32.546875 68.8125 31.890625Q68.125 31.21875 67.09375 31.21875Q65.71875 31.21875 64.953125 32.21875Q64.203125 33.203125 64.203125 35.078125L64.203125 35.421875Q64.203125 37.25 64.953125 38.234375Q65.703125 39.21875 67.109375 39.21875ZM74.828125 40.5L73.03125 40.5L73.03125 29.9375L74.828125 29.9375L74.828125 40.5ZM72.875 27.125Q72.875 26.6875 73.140625 26.390625Q73.421875 26.078125 73.9375 26.078125Q74.46875 26.078125 74.734375 26.390625Q75.015625 26.6875 75.015625 27.125Q75.015625 27.5625 74.734375 27.859375Q74.46875 28.15625 73.9375 28.15625Q73.421875 28.15625 73.140625 27.859375Q72.875 27.5625 72.875 27.125ZM77.421875 35.125Q77.421875 32.703125 78.578125 31.21875Q79.734375 29.734375 81.59375 29.734375Q83.453125 29.734375 84.53125 31.0L84.53125 25.5L86.34375 25.5L86.34375 40.5L84.6875 40.5L84.59375 39.359375Q83.515625 40.703125 81.578125 40.703125Q79.75 40.703125 78.578125 39.203125Q77.421875 37.6875 77.421875 35.265625L77.421875 35.125ZM79.234375 35.328125Q79.234375 37.125 79.96875 38.140625Q80.71875 39.15625 82.03125 39.15625Q83.75 39.15625 84.53125 37.625L84.53125 32.765625Q83.734375 31.265625 82.046875 31.265625Q80.71875 31.265625 79.96875 32.296875Q79.234375 33.328125 79.234375 35.328125ZM95.390625 40.5Q95.234375 40.1875 95.140625 39.390625Q93.875 40.703125 92.125 40.703125Q90.5625 40.703125 89.5625 39.8125Q88.5625 38.921875 88.5625 37.5625Q88.5625 35.921875 89.8125 35.015625Q91.078125 34.09375 93.34375 34.09375L95.109375 34.09375L95.109375 33.265625Q95.109375 32.3125 94.53125 31.75Q93.96875 31.1875 92.875 31.1875Q91.90625 31.1875 91.25 31.6875Q90.59375 32.171875 90.59375 32.859375L88.78125 32.859375Q88.78125 32.078125 89.34375 31.34375Q89.90625 30.59375 90.859375 30.171875Q91.828125 29.734375 92.984375 29.734375Q94.8125 29.734375 95.84375 30.65625Q96.875 31.5625 96.921875 33.171875L96.921875 38.03125Q96.921875 39.484375 97.28125 40.34375L97.28125 40.5L95.390625 40.5ZM92.390625 39.125Q93.25 39.125 94.0 38.6875Q94.765625 38.25 95.109375 37.546875L95.109375 35.375L93.6875 35.375Q90.375 35.375 90.375 37.3125Q90.375 38.171875 90.9375 38.65625Q91.5 39.125 92.390625 39.125ZM99.421875 35.125Q99.421875 32.703125 100.578125 31.21875Q101.734375 29.734375 103.59375 29.734375Q105.453125 29.734375 106.53125 31.0L106.53125 25.5L108.34375 25.5L108.34375 40.5L106.6875 40.5L106.59375 39.359375Q105.515625 40.703125 103.578125 40.703125Q101.75 40.703125 100.578125 39.203125Q99.421875 37.6875 99.421875 35.265625L99.421875 35.125ZM101.234375 35.328125Q101.234375 37.125 101.96875 38.140625Q102.71875 39.15625 104.03125 39.15625Q105.75 39.15625 106.53125 37.625L106.53125 32.765625Q105.734375 31.265625 104.046875 31.265625Q102.71875 31.265625 101.96875 32.296875Q101.234375 33.328125 101.234375 35.328125ZM115.25 40.703125Q113.109375 40.703125 111.75 39.296875Q110.40625 37.875 110.40625 35.515625L110.40625 35.171875Q110.40625 33.609375 111.0 32.375Q111.609375 31.140625 112.6875 30.4375Q113.765625 29.734375 115.03125 29.734375Q117.09375 29.734375 118.234375 31.09375Q119.375 32.453125 119.375 34.984375L119.375 35.734375L112.21875 35.734375Q112.25 37.296875 113.125 38.265625Q114.0 39.21875 115.34375 39.21875Q116.3125 39.21875 116.96875 38.828125Q117.640625 38.4375 118.140625 37.796875L119.234375 38.65625Q117.90625 40.703125 115.25 40.703125ZM115.03125 31.21875Q113.9375 31.21875 113.1875 32.015625Q112.453125 32.8125 112.28125 34.25L117.5625 34.25L117.5625 34.109375Q117.484375 32.734375 116.8125 31.984375Q116.15625 31.21875 115.03125 31.21875ZM129.57812 26.28125L134.21875 37.875L138.875 26.28125L141.29688 26.28125L141.29688 40.5L139.42188 40.5L139.42188 34.96875L139.60938 28.984375L134.9375 40.5L133.5 40.5L128.84375 29.015625L129.03125 34.96875L129.03125 40.5L127.15625 40.5L127.15625 26.28125L129.57812 26.28125ZM148.25 40.703125Q146.10938 40.703125 144.75 39.296875Q143.40625 37.875 143.40625 35.515625L143.40625 35.171875Q143.40625 33.609375 144.0 32.375Q144.60938 31.140625 145.6875 30.4375Q146.76562 29.734375 148.03125 29.734375Q150.09375 29.734375 151.23438 31.09375Q152.375 32.453125 152.375 34.984375L152.375 35.734375L145.21875 35.734375Q145.25 37.296875 146.125 38.265625Q147.0 39.21875 148.34375 39.21875Q149.3125 39.21875 149.96875 38.828125Q150.64062 38.4375 151.14062 37.796875L152.23438 38.65625Q150.90625 40.703125 148.25 40.703125ZM148.03125 31.21875Q146.9375 31.21875 146.1875 32.015625Q145.45312 32.8125 145.28125 34.25L150.5625 34.25L150.5625 34.109375Q150.48438 32.734375 149.8125 31.984375Q149.15625 31.21875 148.03125 31.21875ZM148.59375 25.5L150.78125 25.5L148.15625 28.375L146.70312 28.375L148.59375 25.5ZM154.42188 35.125Q154.42188 32.703125 155.57812 31.21875Q156.73438 29.734375 158.59375 29.734375Q160.45312 29.734375 161.53125 31.0L161.53125 25.5L163.34375 25.5L163.34375 40.5L161.6875 40.5L161.59375 39.359375Q160.51562 40.703125 158.57812 40.703125Q156.75 40.703125 155.57812 39.203125Q154.42188 37.6875 154.42188 35.265625L154.42188 35.125ZM156.23438 35.328125Q156.23438 37.125 156.96875 38.140625Q157.71875 39.15625 159.03125 39.15625Q160.75 39.15625 161.53125 37.625L161.53125 32.765625Q160.73438 31.265625 159.04688 31.265625Q157.71875 31.265625 156.96875 32.296875Q156.23438 33.328125 156.23438 35.328125ZM167.82812 40.5L166.03125 40.5L166.03125 29.9375L167.82812 29.9375L167.82812 40.5ZM165.875 27.125Q165.875 26.6875 166.14062 26.390625Q166.42188 26.078125 166.9375 26.078125Q167.46875 26.078125 167.73438 26.390625Q168.01562 26.6875 168.01562 27.125Q168.01562 27.5625 167.73438 27.859375Q167.46875 28.15625 166.9375 28.15625Q166.42188 28.15625 166.14062 27.859375Q165.875 27.5625 165.875 27.125ZM177.39062 40.5Q177.23438 40.1875 177.14062 39.390625Q175.875 40.703125 174.125 40.703125Q172.5625 40.703125 171.5625 39.8125Q170.5625 38.921875 170.5625 37.5625Q170.5625 35.921875 171.8125 35.015625Q173.07812 34.09375 175.34375 34.09375L177.10938 34.09375L177.10938 33.265625Q177.10938 32.3125 176.53125 31.75Q175.96875 31.1875 174.875 31.1875Q173.90625 31.1875 173.25 31.6875Q172.59375 32.171875 172.59375 32.859375L170.78125 32.859375Q170.78125 32.078125 171.34375 31.34375Q171.90625 30.59375 172.85938 30.171875Q173.82812 29.734375 174.98438 29.734375Q176.8125 29.734375 177.84375 30.65625Q178.875 31.5625 178.92188 33.171875L178.92188 38.03125Q178.92188 39.484375 179.28125 40.34375L179.28125 40.5L177.39062 40.5ZM174.39062 39.125Q175.25 39.125 176.0 38.6875Q176.76562 38.25 177.10938 37.546875L177.10938 35.375L175.6875 35.375Q172.375 35.375 172.375 37.3125Q172.375 38.171875 172.9375 38.65625Q173.5 39.125 174.39062 39.125Z" fill-rule="nonzero"/></svg>